<?xml version="1.0" standalone="no"?>
<!DOCTYPE svg PUBLIC "-//W3C//DTD SVG 1.1//EN" "http://www.w3.org/Graphics/SVG/1.1/DTD/svg11.dtd" >
<!--
2013-9-30: Created.
-->
<svg>
<metadata>
Created by iconfont
</metadata>
<defs>

<font id="iconfont" horiz-adv-x="1024" >
  <font-face
    font-family="iconfont"
    font-weight="500"
    font-stretch="normal"
    units-per-em="1024"
    ascent="896"
    descent="-128"
  />
    <missing-glyph />
    
    <glyph glyph-name="huazhuangpin" unicode="&#13404;" d="M681.991987 535.342899 681.991987 670.462291l-1.923891 4.973261C661.103309 724.5184 553.642598 910.584115 458.863206 892.752998c-73.05175-13.626368-81.503539-125.917798-81.503539-209.193472l0-148.220786c-33.87177-17.363456-57.118208-52.618445-57.118208-93.223219l0-456.938963c0-57.730867 46.975795-104.712909 104.716186-104.712909L634.393971-119.536351c57.74039 0 104.716186 46.982042 104.716186 104.712909L739.110157 442.117652C739.111117 482.721382 715.863757 517.976371 681.991987 535.342899zM424.958566 489.714688 634.393971 489.714688c22.984397 0 42.217165-16.380109 46.639104-38.078259l-302.71661 0C382.740378 473.334682 401.97417 489.714688 424.958566 489.714688zM469.342208 836.603187c36.219392 6.778368 124.294861-101.123072 155.531469-176.954163l0-112.817462L434.478821 546.831562 434.478821 683.56061C434.478797 799.243366 456.390758 834.198426 469.342208 836.603187zM681.991987-14.821274c0-26.24983-21.353165-47.596032-47.597978-47.596032L424.958613-62.417306c-26.244813 0-47.597978 21.345178-47.597978 47.596032L377.360636 413.560246l304.632317 0L681.991987-14.821274 681.991987-14.821274z"  horiz-adv-x="1024" />

    
    <glyph glyph-name="yundong" unicode="&#983111;" d="M1004.562432 246.573056c-1.7408 11.563008-5.618688 37.476352-17.123328 56.046592 5.21728 24.267776 6.029312 67.11296-15.742976 138.124288 5.76 28.35968 11.705344 108.589056-81.79712 178.110464-4.862976 4.158464-13.874176 9.82528-26.97728 9.82528-34.233344 0-58.387456-38.139904-73.571328-66.828288-6.23104-11.762688-11.706368-11.762688-14.98624-11.762688-13.929472 0-34.605056 11.492352-61.437952 34.161664-1.85344 1.568768-3.477504 2.929664-5.018624 4.120576-0.297984 0.369664-0.641024 0.78336-1.010688 1.217536-12.376064 14.900224-45.267968 54.473728-92.40576 54.473728-23.653376 0-46.024704-9.92256-66.485248-29.493248-62.850048-60.132352-211.616768-178.459648-287.141888-192.959488-19.904512-3.8144-35.060736-7.186432-54.807552-11.599872-15.440896-3.442688-33.762304-7.527424-59.584512-12.981248C81.441792 383.364096 26.805248 368.436224 17.009664 324.2496c-1.169408-5.118976-1.910784-10.51648-2.182144-15.978496-2.793472-54.23616 34.404352-126.759936 227.301376-164.513792 8.269824-2.060288 60.581888-14.11584 150.094848-14.11584 55.50592 0 114.318336 4.62848 173.546496 13.581312 0.812032 0.086016 81.783808 8.51968 170.227712 8.51968 31.136768 0 59.738112-1.042432 85.016576-3.101696l2.054144-0.162816 2.05312 0.119808c30.413824 1.816576 132.3008 11.07968 166.962176 53.854208C1002.636288 215.453696 1006.942208 230.703104 1004.562432 246.573056zM158.505984 339.883008c26.133504 5.51936 44.655616 9.645056 60.26752 13.1328 19.121152 4.27008 33.792 7.539712 53.083136 11.236352C356.939776 380.587008 497.030144 489.571328 569.008128 554.423296c-0.01024-0.387072-0.028672-0.77312-0.028672-1.163264 0-24.593408 20.004864-44.599296 44.599296-44.599296 24.595456 0 44.599296 20.005888 44.599296 44.599296 0 1.252352-0.063488 2.48832-0.165888 3.714048 1.55136-1.798144 2.8928-3.410944 3.97312-4.7104 3.321856-4.000768 6.516736-7.842816 11.035648-10.752 0.6144-0.505856 1.353728-1.138688 2.224128-1.880064 15.525888-13.111296 56.774656-47.942656 99.121152-47.942656 28.316672 0 51.970048 15.212544 66.599936 42.845184 9.48224 17.91488 16.68096 27.268096 21.11488 32 69.748736-56.368128 52.383744-115.017728 51.700736-117.228544l-3.167232-9.182208 2.965504-9.24672c10.800128-33.637376 15.648768-59.05408 17.472512-77.74208-14.193664-1.931264-38.393856-4.450304-76.541952-6.280192-36.586496-1.718272-68.867072-10.635264-109.71648-21.92896-50.342912-13.90592-118.657024-32.77824-234.529792-49.69472-17.779712 12.434432-53.481472 30.127104-97.824768 14.178304-10.093568-3.628032-19.617792-7.676928-29.285376-11.805696-33.476608-14.307328-65.143808-27.759616-134.181888-24.885248-22.499328 0.362496-88.799232 5.537792-125.028352 24.98048-8.225792 4.320256-32.694272 18.791424-47.066112 33.732608-0.54784 0.56832-1.052672 1.108992-1.528832 1.63328C80.436224 318.188544 98.568192 327.286784 158.505984 339.883008zM823.627776 207.020032c-26.304512 2.075648-55.778304 3.122176-87.627776 3.122176-91.652096 0-172.949504-8.482816-177.642496-9.010176-57.645056-8.682496-113.537024-13.088768-166.132736-13.088768-44.940288 0-79.593472 3.265536-102.703104 6.4512 54.669312 2.983936 87.22432 16.869376 116.575232 29.408256 8.626176 3.678208 17.108992 7.320576 26.105856 10.559488 20.675584 7.435264 37.769216-2.061312 44.983296-7.243776l0.699392-1.717248 4.491264-2.9952 7.94112-9.090048 15.640576 2.203648c127.239168 17.8944 200.72448 38.1952 254.37696 53.016576 40.265728 11.12064 66.854912 18.471936 96.941056 19.892224 22.5792 1.079296 40.758272 2.408448 55.26528 3.76832l-40.737792-44.177408 69.951488 14.050304c1.496064-5.039104 3.236864-12.4672 4.8896-23.166976C937.678848 225.90464 879.248384 210.67776 823.627776 207.020032z"  horiz-adv-x="1024" />

    
    <glyph glyph-name="jiaotong" unicode="&#58946;" d="M959.839213 374.45153c0 40.799218-33.000602 73.963549-73.704652 74.360592L886.134561 654.327822c0 58.004065-47.197952 105.211227-105.21839 105.211227L242.156714 759.539049c-58.020438 0-105.21839-47.208185-105.21839-105.211227l0-205.722408C97.278045 447.016219 65.444013 414.490431 65.444013 374.45153c0-40.030715 31.834033-72.538083 71.494311-74.128301l0-184.752818c0-12.540617 10.156314-22.697955 22.687722-22.697955l18.024515 0 0-28.29237c0-28.467355 14.552437-41.491996 26.756387-47.363727 13.290701-6.391571 28.716019-6.90834 44.668339-6.90834l26.115797 0c21.366633 0 71.424726 0 71.424726 54.272068l0 28.29237 329.839217 0 0-28.29237c0-28.467355 14.553461-41.491996 26.764574-47.363727 13.283538-6.391571 28.708855-6.90834 44.668339-6.90834l26.107611 0c21.375843 0 71.433936 0 71.433936 54.272068l0 28.29237 18.016329 0c12.530384 0 22.686698 10.157337 22.686698 22.697955L886.132514 300.081729C926.837588 300.495144 959.839213 333.661521 959.839213 374.45153zM110.82048 374.45153c0 15.027252 11.485589 27.275203 26.116821 28.776394l0-57.545624C122.306068 347.202932 110.82048 359.432465 110.82048 374.45153zM301.248553 64.580087c0-4.112668-0.647753-6.080485-0.630357-6.218632-2.333138-1.796926-10.899234-2.695389-25.427112-2.695389l-26.115797 0c-14.526855 0-23.085788 0.898463-25.167193 2.384303-0.243547 0.448208-0.889253 2.417049-0.889253 6.529717l0 28.29237 78.229712 0L301.248553 64.580087zM800.063253 64.580087c0-4.112668-0.657986-6.080485-0.639566-6.218632-2.331092-1.796926-10.891048-2.695389-25.427112-2.695389l-26.107611 0c-14.535041 0-23.094998 0.898463-25.168216 2.384303-0.240477 0.448208-0.898463 2.417049-0.898463 6.529717l0 28.29237 78.239945 0L800.06223 64.580087zM840.758094 264.810411 720.692554 264.810411c-12.532431 0-22.688745-10.157337-22.688745-22.697955 0-12.539594 10.156314-22.696931 22.688745-22.696931l120.06554 0 0-81.183997L182.305581 138.231527l0 81.183997 120.073726 0c12.532431 0 22.688745 10.157337 22.688745 22.696931 0 12.540617-10.156314 22.697955-22.688745 22.697955L182.305581 264.810411l0 93.446275 658.453537 0L840.759117 264.810411zM840.758094 403.627013 182.305581 403.627013 182.305581 654.327822c0 32.992415 26.850531 59.83476 59.851133 59.83476l538.758434 0c33.001625 0 59.842946-26.842345 59.842946-59.83476L840.758094 403.627013zM886.133537 345.475592l0 57.977459c15.684214-0.414439 28.337395-13.231349 28.337395-29.001521C914.471956 358.672148 901.817752 345.856261 886.133537 345.475592z"  horiz-adv-x="1024" />

    
    <glyph glyph-name="jianzhi" unicode="&#58973;" d="M551.76926 736.760253l0 16.324804c0 24.566512-20.09978 44.666292-44.665269 44.666292l-5.573949 0c-24.584931 0-44.665269-20.100804-44.665269-44.666292l0-18.10331c-186.217169-26.523073-329.86173-186.947809-329.86173-380.358821 0-211.888851 172.382069-384.27092 384.291386-384.27092 28.340465 0 56.644091 3.101641 84.075861 9.230222 13.696953 3.062755 22.332634 16.621563 19.269879 30.317493-3.062755 13.716396-16.700357 22.293749-30.336936 19.269879-23.816428-5.296633-48.381917-8.004301-73.008804-8.004301-183.884031 0-333.497537 149.594063-333.497537 333.457628s149.613506 333.478094 333.497537 333.478094c183.864588 0 333.458651-149.614529 333.458651-333.478094 0-24.527626-2.688225-48.994877-7.946996-72.711022-3.042289-13.696953 5.573949-27.255761 19.291368-30.29805 13.676487-3.102664 27.254737 5.572926 30.317493 19.268856 6.068206 27.314089 9.150404 55.496965 9.150404 83.740216C895.565351 552.836313 744.706481 716.461951 551.76926 736.760253zM511.985162 573.114149c-14.031575 0-25.39539-11.383258-25.39539-25.39539l0-191.551664c0-14.033621 11.363815-25.416879 25.39539-25.416879l179.25971 0c14.052041 0 25.396413 11.383258 25.396413 25.416879 0 14.031575-11.344373 25.39539-25.396413 25.39539L537.402041 381.562485 537.402041 547.717735C537.402041 561.73089 526.038226 573.114149 511.985162 573.114149zM751.26792 245.012506c-73.936943 0-133.88222-59.924811-133.88222-133.86073 0-73.9175 59.945277-133.841288 133.88222-133.841288 73.9175 0 133.841288 59.923788 133.841288 133.841288C885.109208 185.087695 825.186444 245.012506 751.26792 245.012506zM796.01403 94.055398c7.925507 0 14.347776-6.423293 14.347776-14.329357 0-7.925507-6.42227-14.329357-14.347776-14.329357l-29.764907 0 0-27.392884c0-7.925507-6.443759-14.3488-14.3488-14.3488-7.924483 0-14.347776 6.423293-14.347776 14.3488l0 27.392884-32.333406 0c-7.925507 0-14.3488 6.40385-14.3488 14.329357 0 7.906064 6.423293 14.329357 14.3488 14.329357L737.551524 94.055398l0 15.632025-31.068599 0c-7.907087 0-14.328333 6.423293-14.328333 14.329357 0 7.924483 6.421246 14.347776 14.328333 14.347776L726.602148 138.364557l-21.957081 21.978571c-5.594415 5.593392-5.594415 14.665001 0 20.258393 5.593392 5.611811 14.685467 5.611811 20.258393 0l27.155477-27.137057 27.155477 27.137057c5.611811 5.611811 14.685467 5.611811 20.277836 0 5.612834-5.593392 5.612834-14.665001 0-20.258393l-21.977547-21.978571 19.783579 0c7.924483 0 14.329357-6.423293 14.329357-14.347776 0-7.906064-6.404873-14.329357-14.329357-14.329357l-31.05018 0 0-15.632025L796.01403 94.055398z"  horiz-adv-x="1024" />

    
    <glyph glyph-name="icon" unicode="&#58931;" d="M191.918519-63.457008l-0.031722 895.446136 639.72601 0-0.072655-895.446136L191.918519-63.457008zM517.665535-27.471422c32.980135 0 59.696614 26.715455 59.696614 59.697637 0 32.985252-26.716478 59.69559-59.696614 59.69559-32.985252 0-59.69559-26.710338-59.69559-59.69559C457.968921-0.754944 484.680283-27.471422 517.665535-27.471422L517.665535-27.471422zM767.400343 767.994628 255.832178 767.994628l0-639.310547 511.568165 0L767.400343 767.994628 767.400343 767.994628zM767.400343 767.994628"  horiz-adv-x="1024" />

    
    <glyph glyph-name="logo-wechat" unicode="&#58905;" d="M570.935 384.49c-10.214 0-20.431-9.482-20.431-21.166 0-9.484 10.214-18.967 20.431-18.967 15.332 0 26.277 9.484 26.277 18.967-0.001 11.679-10.945 21.166-26.277 21.166v0 0 0zM503.799 483.015c16.057 0 26.271 10.214 26.271 25.546 0 16.053-10.214 25.541-26.271 25.541-15.328 0-29.925-9.488-29.925-25.541 0-15.336 14.597-25.546 29.925-25.546v0 0 0zM511.826 832.057c-247.386 0-447.935-200.546-447.935-447.93 0-247.389 200.55-447.934 447.935-447.934 247.385 0 447.929 200.546 447.929 447.934 0 247.386-200.541 447.93-447.929 447.93v0 0 0zM427.167 270.637c-27.003 0-46.708 4.379-72.254 11.684l-73.71-37.225 21.171 62.765c-51.817 36.481-82.471 82.463-82.471 138.663 0 99.251 93.416 175.149 207.266 175.149 100.711 0 190.485-59.84 207.999-144.507-7.301 1.47-13.871 2.196-19.706 2.196-99.256 0-175.88-74.44-175.88-164.204 0-15.328 2.187-29.193 5.835-43.795-5.836-0.725-12.41-0.725-18.249-0.725v0 0 0zM731.5 199.119l14.592-52.548-55.464 31.38c-21.163-4.374-41.6-10.945-62.762-10.945-97.795 0-175.154 67.141-175.154 150.338 0 83.198 77.358 150.338 175.154 150.338 92.686 0 175.884-67.141 175.884-150.338 0-46.707-31.381-88.302-72.249-118.225v0 0 0zM359.296 534.102c-15.328 0-31.38-9.488-31.38-25.541 0-15.332 16.053-25.551 31.38-25.551 14.597 0 26.271 10.219 26.271 25.551 0 16.053-11.674 25.541-26.271 25.541v0 0 0zM685.518 384.49c-10.945 0-20.433-9.482-20.433-21.166 0-9.484 9.488-18.967 20.433-18.967 14.596 0 25.545 9.484 25.545 18.967 0 11.679-10.949 21.166-25.545 21.166v0 0 0zM685.518 384.49z"  horiz-adv-x="1025" />

    
    <glyph glyph-name="ren" unicode="&#58906;" d="M510.639003 765.016807c-121.685433 0-220.673935-98.992595-220.673935-220.678028 0-88.12406 52.040237-164.125011 126.894062-199.468984C278.472316 304.229189 177.053462 176.284191 177.053462 24.926972c0-9.633405 7.806803-17.432021 17.432021-17.432021 9.625218 0 17.432021 7.798617 17.432021 17.432021 0 164.720575 134.021389 298.733778 298.721499 298.733778 121.685433 0 220.683145 98.992595 220.683145 220.678028S632.324436 765.016807 510.639003 765.016807L510.639003 765.016807zM510.639003 358.524792c-102.462626 0-185.809893 83.359546-185.809893 185.813986 0 102.458533 83.347267 185.813986 185.809893 185.813986 102.46672 0 185.818079-83.355453 185.818079-185.813986C696.457082 441.880245 613.109816 358.524792 510.639003 358.524792L510.639003 358.524792zM510.639003 358.524792M712.986547 290.175101c-7.66354 5.840008-18.591427 4.393054-24.428366-3.269463-5.855358-7.659447-4.393054-18.587334 3.266393-24.443715 74.701352-57.081043 117.531833-143.66298 117.531833-237.530858 0-9.637498 7.810896-17.436114 17.433044-17.436114 9.633405 0 17.432021 7.798617 17.432021 17.436114C844.221474 129.759575 796.386002 226.438475 712.986547 290.175101L712.986547 290.175101zM712.986547 290.175101"  horiz-adv-x="1024" />

    
    <glyph glyph-name="shu" unicode="&#58949;" d="M926.063457 700.605821c-45.726437 13.043061-88.846514 18.361183-128.733966 18.361183-172.867116 0-284.708344-99.638301-284.708344-99.638301l-1.157359 0.049119-1.125637-0.049119c0 0-111.833041 99.638301-284.691971 99.638301-39.857776 0-82.9799-5.318122-128.73192-18.361183-13.043061-3.713578-22.100344-15.903202-22.100344-29.903054l0-521.15859c0-17.359366 13.646811-31.006178 29.903054-31.006178 1.429559 0 2.930749 0.103354 4.437056 0.303922 25.563212 3.914146 63.667042 8.226359 108.293425 8.226359 81.120552 0 183.895287-14.098089 272.51872-70.039169 6.268774-3.90903 13.320377-5.915733 20.37198-5.915733 0.375553 0 0.7552 0.049119 1.12973 0.049119 0.401136 0 0.773619-0.049119 1.153266-0.049119 7.046486 0 14.098089 2.006703 20.344351 5.915733 88.663342 55.942103 191.44217 70.039169 272.541233 70.039169 44.675502 0 82.756819-4.311189 108.315938-8.226359 1.506307-0.201591 2.962471-0.303922 4.442172-0.303922 16.229636 0 29.898961 13.646811 29.898961 31.006178L948.163801 670.701744C948.190407 684.70262 939.106518 696.892243 926.063457 700.605821L926.063457 700.605821 926.063457 700.605821 926.063457 700.605821zM494.979348 89.938638c-75.726705 44.603871-171.352623 68.131727-277.510408 68.131727-47.182602 0-87.345324-4.666276-112.681362-8.527211L104.787578 670.701744c0 0 0.054235 0.049119 0.076748 0.049119 40.108486 11.43954 80.749092 17.207917 120.781854 17.207917 36.450167 0 72.970942-4.76349 108.593254-14.196327 28.647457-7.574512 56.767911-18.20871 83.632769-31.556717 45.453215-22.574135 71.969125-45.555545 72.9208-46.404889l4.539386-4.066619L494.979348 89.938638 494.979348 89.938638 494.979348 89.938638 494.979348 89.938638zM918.211629 149.543154c-25.358551 3.860934-65.494667 8.527211-112.703875 8.527211-106.157785 0-201.765283-23.526833-277.532921-68.131727l-0.38067 501.796614 4.568039 4.066619c0.956791 0.848321 27.471678 23.830755 72.934103 46.404889 26.874067 13.346983 55.021128 23.982204 83.641979 31.556717 35.622312 9.432837 72.143087 14.196327 108.59223 14.196327 40.032762 0 80.69588-5.768377 120.782877-17.207917 0.027629 0 0.071631-0.049119 0.098237-0.049119L918.211629 149.543154 918.211629 149.543154 918.211629 149.543154 918.211629 149.543154zM227.930199 718.967004c2.054799 0 4.060479 0 6.121418-0.049119l-0.026606 0.049119L227.930199 718.967004 227.930199 718.967004 227.930199 718.967004 227.930199 718.967004zM227.930199 718.967004"  horiz-adv-x="1024" />

    
    <glyph glyph-name="qita" unicode="&#58986;" d="M826.864 514.216c-71.959 0-130.501-58.542-130.501-130.5s58.542-130.5 130.501-130.5c71.958 0 130.5 58.542 130.5 130.5s-58.541 130.5-130.5 130.5zM826.864 304.438c-43.715 0-79.279 35.564-79.279 79.278s35.564 79.278 79.279 79.278c43.714 0 79.278-35.564 79.278-79.278s-35.564-79.278-79.278-79.278zM504.126 514.216c-71.958 0-130.5-58.542-130.5-130.5s58.541-130.5 130.5-130.5 130.5 58.542 130.5 130.5-58.542 130.5-130.5 130.5zM504.126 304.438c-43.714 0-79.277 35.564-79.277 79.278s35.563 79.278 79.277 79.278 79.278-35.564 79.278-79.278-35.565-79.278-79.278-79.278zM197.53 514.216c-71.958 0-130.5-58.542-130.5-130.5s58.542-130.5 130.5-130.5 130.5 58.542 130.5 130.5-58.541 130.5-130.5 130.5zM197.53 304.438c-43.714 0-79.278 35.564-79.278 79.278s35.564 79.278 79.278 79.278 79.278-35.564 79.278-79.278-35.564-79.278-79.278-79.278z"  horiz-adv-x="1024" />

    
    <glyph glyph-name="hongbao" unicode="&#59268;" d="M516.042332 543.887116c-1.892155 0-3.78431 0.172014-5.676466 0.516042L154.640685 608.392407c-15.137242 2.752226-26.318159 15.997312-26.318159 31.478582L128.322526 735.854863c0 52.808332 43.003528 95.983874 95.983874 95.983874L799.865614 831.838737c52.808332 0 95.983874-43.003528 95.983874-95.983874l0-95.983874c0-15.48127-11.008903-28.726356-26.146145-31.478582l-347.812531-63.989249C519.826642 544.05913 517.934487 543.887116 516.042332 543.887116zM192.139761 666.533177l323.730556-58.140769 315.817907 58.140769L831.688224 735.854863c0 17.545439-14.277171 31.994625-31.994625 31.994625L224.134386 767.849488c-17.545439 0-31.994625-14.277171-31.994625-31.994625C192.139761 735.854863 192.139761 666.533177 192.139761 666.533177zM799.865614-63.666723 224.134386-63.666723c-52.808332 0-95.983874 43.003528-95.983874 95.983874L128.150512 511.892491c0 17.717453 14.277171 31.994625 31.994625 31.994625s31.994625-14.277171 31.994625-31.994625l0-479.747354c0-17.717453 14.277171-31.994625 31.994625-31.994625L799.865614 0.150512c17.717453 0 31.994625 14.277171 31.994625 31.994625L831.860239 511.892491c0 17.717453 14.277171 31.994625 31.994625 31.994625 17.717453 0 31.994625-14.277171 31.994625-31.994625l0-479.747354C895.677474-20.663195 852.673946-63.666723 799.865614-63.666723zM607.725853 256.107509c17.717453 0 31.994625 14.277171 31.994625 31.994625s-14.277171 31.994625-31.994625 31.994625l-51.776247 0 76.030237 73.278011c12.729044 12.213002 13.073072 32.510667 0.860071 45.067697-12.213002 12.729044-32.510667 12.901058-45.239711 0.688056l-76.202251-73.622039-73.278011 73.105997c-12.55703 12.55703-32.854695 12.55703-45.239711 0-12.55703-12.55703-12.385016-32.510667 0-45.067697l73.966068-73.622039-51.088191 0c-17.717453 0-31.994625-14.277171-31.994625-31.994625s14.277171-31.994625 31.994625-31.994625L479.919368 255.935495l0-31.994625-64.161263 0c-17.717453 0-31.994625-14.277171-31.994625-31.994625 0-17.717453 14.277171-31.994625 31.994625-31.994625L479.919368 159.951621l0-64.333277c0-17.717453 14.277171-31.994625 31.994625-31.994625 17.717453 0 31.994625 14.277171 31.994625 31.994625l0 64.333277 63.817235 0c17.717453 0 31.994625 14.277171 31.994625 31.994625 0 17.717453-14.277171 31.994625-31.994625 31.994625l-63.817235 0L543.908618 256.107509 607.725853 256.107509z"  horiz-adv-x="1024" />

    
    <glyph glyph-name="weixin" unicode="&#59029;" d="M506.942 550.079c25.259 0 42.134 16.916 42.134 42.107 0 25.477-16.848 41.956-42.134 41.956-25.299 0-50.668-16.48-50.668-41.956 0.028-25.204 25.409-42.107 50.668-42.107v0zM506.942 550.079zM271.257 634.143c-25.259 0-50.79-16.48-50.79-41.956 0-25.19 25.532-42.107 50.79-42.107 25.163 0 42.012 16.916 42.012 42.107-0.014 25.477-16.834 41.956-42.012 41.956v0zM271.257 634.143zM1010.654 280.508c0 133.202-123.563 246.702-275.237 258.512 0.205 1.652 0.301 3.373-0.068 5.092-30.406 141.79-182.886 248.695-354.7 248.695-194.15 0-352.119-135.387-352.119-301.793 0-89.279 45.574-169.725 131.946-233.158l-30.106-90.508c-1.939-5.885-0.177-12.37 4.506-16.452 2.853-2.458 6.445-3.741 10.076-3.741 2.335 0 4.697 0.546 6.867 1.625l113.036 56.565 13.926-2.827c34.802-7.154 64.853-13.353 101.868-13.353 10.895 0 40.878 3.987 43.404 7.182 40.755-101.99 153.094-175.61 285.273-175.61 33.86 0 68.13 8.164 98.891 15.866l87.136-47.636c2.307-1.257 4.847-1.911 7.359-1.911 3.441 0 6.881 1.161 9.639 3.413 4.847 3.932 6.841 10.404 5.038 16.33l-22.255 74.001c74.602 58.955 115.521 129.488 115.521 199.708v0zM409.798 230.25c-9.626-0.833-19.388-1.243-29.082-1.243-32.686 0-60.334 5.652-92.31 12.26l-18.582 3.755c-3.195 0.683-6.567 0.245-9.503-1.269l-81.687-40.892 21.231 63.775c2.076 6.24-0.205 13.053-5.57 16.821-82.070 57.207-123.659 126.894-123.659 207.093 0 144.179 139.087 261.516 310.067 261.516 151.142 0 284.959-91.955 312.579-214.261-158.475-2.076-286.706-113.487-286.706-250.32 0-19.893 3.018-39.171 8.11-57.767-1.542 0.382-3.168 0.683-4.887 0.532v0zM860.371 107.301c-4.875-3.673-6.935-10.007-5.188-15.852l13.804-45.903-56.647 30.993c-2.157 1.188-4.588 1.803-7.004 1.803-1.188 0-2.389-0.15-3.564-0.464-30.379-7.674-61.822-15.593-92.433-15.593-142.186 0-257.857 97.717-257.857 217.811 0 120.095 115.658 217.771 257.857 217.771 139.469 0 257.325-99.724 257.325-217.771 0-59.87-37.738-121.255-106.291-172.797v0zM868.181 98.822zM616.454 389.994c-16.848 0-33.696-16.971-33.696-33.792 0-16.944 16.848-33.669 33.696-33.669 25.313 0 42.038 16.725 42.038 33.669 0 16.848-16.725 33.792-42.038 33.792v0zM616.454 389.994zM801.58 389.994c-16.603 0-33.451-16.971-33.451-33.792 0-16.944 16.848-33.669 33.451-33.669 25.231 0 42.257 16.725 42.257 33.669 0 16.848-16.998 33.792-42.257 33.792v0zM801.58 389.994z"  horiz-adv-x="1024" />

    
    <glyph glyph-name="jia" unicode="&#58907;" d="M512-128C229.2224-128 0 101.2224 0 384 0 666.7776 229.2224 896 512 896 794.7776 896 1024 666.7776 1024 384 1024 101.2224 794.7776-128 512-128ZM716.8 409.6 537.6 409.6 537.6 588.8 486.4 588.8 486.4 409.6 307.2 409.6 307.2 358.4 486.4 358.4 486.4 179.2 537.6 179.2 537.6 358.4 716.8 358.4 716.8 409.6Z"  horiz-adv-x="1024" />

    
    <glyph glyph-name="shu1" unicode="&#59174;" d="M800 832l-192 0c-52.48 0-98.56-25.6-128-65.28C450.56 806.4 404.48 832 352 832l-192 0C106.88 832 64 789.12 64 736l0-512C64 170.88 106.88 128 160 128l192 0C405.12 128 448 85.12 448 32 448 14.08 462.08 0 480 0 497.92 0 512 14.08 512 32 512 85.12 554.88 128 608 128l192 0c53.12 0 96 42.88 96 96l0 512C896 789.12 853.12 832 800 832zM448 160C421.12 179.84 387.84 192 352 192l-192 0C142.08 192 128 206.08 128 224l0 512C128 753.92 142.08 768 160 768l192 0C405.12 768 448 725.12 448 672L448 160zM832 224c0-17.92-14.08-32-32-32l-192 0c-35.84 0-69.12-12.16-96-32l0 512C512 725.12 554.88 768 608 768l192 0C817.92 768 832 753.92 832 736L832 224z"  horiz-adv-x="1024" />

    
    <glyph glyph-name="shangpingouwudai" unicode="&#59272;" d="M830.592 611.584C828.736 627.776 815.04 640 798.72 640L639.04 640 639.04 672c0 88.192-71.68 160-159.744 160S319.552 760.192 319.552 672L319.552 640 159.872 640C143.552 640 129.92 627.776 128.128 611.584l-63.936-576c-1.024-9.088 1.92-18.112 8-24.96C78.272 3.904 86.848 0 95.936 0l766.72 0c9.088 0 17.728 3.904 23.808 10.624 6.016 6.784 8.96 15.872 7.936 24.96L830.592 611.584zM383.488 672c0 52.928 43.008 96 95.808 96 52.864 0 95.872-43.072 95.872-96L575.168 640 383.488 640 383.488 672zM131.712 64l56.832 512 131.072 0 0-96c0-17.664 14.336-32 32-32 17.6 0 31.936 14.336 31.936 32L383.552 576l191.68 0 0-96C575.168 462.336 589.44 448 607.104 448c17.6 0 31.936 14.336 31.936 32L639.04 576l131.136 0 56.832-512L131.712 64z"  horiz-adv-x="1024" />

    
    <glyph glyph-name="qian" unicode="&#58917;" d="M504.953909-127.365671c-278.056792 0-503.461221 225.451752-503.461221 503.459207 0 278.058806 225.404429 503.461221 503.461221 503.461221 278.009469 0 503.461221-225.402416 503.461221-503.461221C1008.41513 98.086082 782.963378-127.365671 504.953909-127.365671L504.953909-127.365671 504.953909-127.365671zM504.953909 816.622231c-243.293526 0-440.526681-197.234162-440.526681-440.528694 0-243.292519 197.233155-440.479358 440.526681-440.479358 243.294533 0 440.480365 197.186839 440.480365 440.479358C945.434274 619.38807 748.248442 816.622231 504.953909 816.622231L504.953909 816.622231 504.953909 816.622231zM536.420676 61.430903l-62.933534 0L473.487142 218.811053 284.690569 218.811053l0 62.884197 188.796573 0 0 94.398287L284.690569 376.093537l0 62.934541 153.598339 0-154.082644 217.645473 53.96331 34.132964 156.022887-220.312677 35.732884 0L669.413377 679.025104l52.315061-35.005922L584.565272 439.028077l140.652984 0 0-62.934541-182.737217 0-6.06137-9.01654 0-85.381747 188.79758 0 0-62.884197L536.420676 218.811053 536.420676 61.430903 536.420676 61.430903 536.420676 61.430903z"  horiz-adv-x="1024" />

    
    <glyph glyph-name="xianjin" unicode="&#58896;" d="M835.571467 769.546983l-232.484935-351.969237 183.997618 0 0-77.713966-216.071104 0 0-108.040668 216.071104 0 0-78.115102-216.071104 0 0-155.326625L452.951139-1.618615 452.951139 153.709033 230.237755 153.709033l0 78.156034 222.713384 0L452.951139 339.898573 230.237755 339.898573l0 77.722152 187.66003 0L188.428533 769.584845l135.050836 0 160.362314-274.315646c8.905834-15.233959 19.001773-34.712593 30.315446-58.210773l2.367931 0c8.084119 18.890232 18.605753 39.167045 31.497365 60.70764L709.001793 769.618615l126.569674 0L835.571467 769.546983zM835.571467 769.546983"  horiz-adv-x="1024" />

    
    <glyph glyph-name="yiliao" unicode="&#58944;" d="M0.569982-43.336762 0.569982 657.225825l252.190743 0 0 98.078783L252.760724 783.320685 252.760724 811.337785l518.434549 0L771.195274 783.320685l0-28.016077 0-98.078783 252.190743 0L1023.386016-43.336762 0.569982-43.336762 0.569982-43.336762zM715.140607 755.304607 308.815391 755.304607l0-98.078783L715.140607 657.225825 715.140607 755.304607 715.140607 755.304607zM967.353862 601.171158 56.602136 601.171158l0-588.474742 910.751726 0L967.353862 601.171158 967.353862 601.171158zM476.957903 503.091352l56.032154 0 0-182.15055L715.140607 320.940802l0-56.032154L532.990057 264.908648l0-168.142511-56.032154 0L476.957903 264.908648 308.815391 264.908648l0 56.032154 168.142511 0L476.957903 503.091352 476.957903 503.091352z"  horiz-adv-x="1039" />

    
    <glyph glyph-name="zhifubao" unicode="&#58958;" d="M511.997-126.91c-69.032 0-136.015 13.527-199.087 40.204-60.903 25.765-115.601 62.637-162.565 109.601C103.383 69.853 66.509 124.551 40.746 185.46c-26.679 63.067-40.2 130.049-40.2 199.088 0 69.033 13.522 136.016 40.2 199.087 25.763 60.904 62.636 115.602 109.599 162.566C197.309 793.163 252.006 830.037 312.91 855.8 375.982 882.478 442.965 896 511.997 896c69.034 0 136.023-13.522 199.088-40.2 60.909-25.762 115.601-62.642 162.564-109.599 46.965-46.964 83.837-101.661 109.601-162.566 26.677-63.071 40.204-130.054 40.204-199.093 0-69.033-13.527-136.016-40.204-199.087-25.764-60.909-62.636-115.602-109.601-162.56-46.964-46.964-101.655-83.842-162.559-109.601C648.014-113.381 581.031-126.91 511.997-126.91L511.997-126.91zM511.997 860.97c-64.32 0-126.711-12.597-185.442-37.436-56.73-23.997-107.678-58.346-151.437-102.106-43.761-43.753-78.11-94.707-102.107-151.438-24.838-58.73-37.436-121.122-37.436-185.442 0-64.319 12.598-126.717 37.436-185.441 23.997-56.73 58.352-107.684 102.107-151.438 43.759-43.759 94.707-78.114 151.437-102.106 58.731-24.845 121.124-37.437 185.442-37.437 64.326 0 126.718 12.592 185.442 37.437 56.73 23.996 107.684 58.348 151.438 102.106 43.761 43.755 78.114 94.703 102.106 151.438 24.845 58.726 37.437 121.116 37.437 185.441 0 64.324-12.592 126.718-37.437 185.442-23.996 56.73-58.346 107.684-102.106 151.438-43.755 43.761-94.708 78.115-151.438 102.106C638.714 848.373 576.323 860.97 511.997 860.97L511.997 860.97zM607.874 331.052c53.033 96.426 72.318 188.025 72.318 188.025l-9.645 0 0 0L588.59 519.077l-86.78 0 0 67.5 212.132 0 0 28.924L501.81 615.501 501.81 716.746l-96.423 0 0-101.245L212.541 615.501l0-28.924 192.846 0 0-67.5-163.92 0 0-28.926 332.662 0c0-4.821-28.926-91.603-48.212-130.169-245.879 96.423-318.198 38.566-337.482 28.926C24.517 273.201 178.793 128.565 202.9 133.387c173.563-38.568 284.446 33.749 361.586 125.353 4.819-4.823 9.642-4.823 14.464-4.823 53.032-28.924 308.552-149.453 308.552-149.453l0 144.63C848.932 249.093 709.118 297.305 607.874 331.052L607.874 331.052zM482.524 287.663c-120.528-154.277-265.161-106.065-289.269-96.422-57.852 14.463-77.137 120.529-4.822 154.277 120.528 38.565 226.595-4.822 303.735-43.393C487.346 292.485 482.524 287.663 482.524 287.663L482.524 287.663z"  horiz-adv-x="1024" />

    
    <glyph glyph-name="xianjin1" unicode="&#58935;" d="M508.039084 510.052415c-4.476766-4.788299-6.442052-10.308901-6.076911-16.448524 0.432909-6.010154 2.517549-13.374667 6.631197-21.844716l41.363051 34.243314c-9.146722 7.240102-17.366938 10.919829-24.365299 11.289016C518.719195 517.661703 512.766694 515.206865 508.039084 510.052415zM506.816217 768.723707c-217.746208 0-394.360992-176.614784-394.360992-394.42168 0-217.686531 176.614784-394.302327 394.360992-394.302327 217.747219 0 394.363015 176.614784 394.363015 394.302327C901.17822 592.108923 724.563436 768.723707 506.816217 768.723707zM648.837718 405.872025l0-47.35601L538.390261 358.516016l0-47.360056 110.447457 0 0-47.237668L538.390261 263.918292l0-94.722134-63.151124 0c0 9.373292 0 48.71846 0 94.722134L364.799772 263.918292l0 47.237668 110.439365 0c0 16.276574 0 32.433794 0 47.360056L364.799772 358.516016l0 47.35601 110.439365 0L301.64966 579.52826l94.723146 0 110.443411-110.506122L617.263674 579.52826l94.720111 0L538.390261 405.872025 648.837718 405.872025zM506.816217 879.47865c-278.981608 0-505.175613-226.192993-505.175613-505.176624 0-278.984642 226.194005-505.179658 505.175613-505.179658 278.982619 0 505.179658 226.195016 505.179658 505.179658C1011.995875 653.284646 785.798836 879.47865 506.816217 879.47865zM506.816217-83.271789c-252.771388 0-457.633492 204.862104-457.633492 457.573816 0 252.835111 204.863116 457.690135 457.633492 457.690135 252.7724 0 457.634504-204.855024 457.634504-457.690135C964.45072 121.590315 759.588616-83.271789 506.816217-83.271789z"  horiz-adv-x="1028" />

    
    <glyph glyph-name="qita1" unicode="&#58904;" d="M214.699873 384m-87.440491 0a85.449 85.449 0 1 0 174.880983 0 85.449 85.449 0 1 0-174.880983 0ZM809.300127 384m-87.440491 0a85.449 85.449 0 1 0 174.880983 0 85.449 85.449 0 1 0-174.880983 0ZM512.005117 384m-87.440491 0a85.449 85.449 0 1 0 174.880983 0 85.449 85.449 0 1 0-174.880983 0Z"  horiz-adv-x="1024" />

    
    <glyph glyph-name="weixin1" unicode="&#58969;" d="M249.173333 560.128c0-10.922667 4.437333-21.504 11.946667-29.013333 7.509333-7.509333 18.432-11.946667 29.013333-11.946667 10.922667 0 21.504 4.437333 29.013333 11.946667 7.509333 7.509333 11.946667 18.432 11.946667 29.013333 0 10.922667-4.437333 21.504-11.946667 29.013333-7.509333 7.509333-18.432 11.946667-29.013333 11.946667-10.922667 0-21.504-4.437333-29.013333-11.946667C253.610667 581.632 249.173333 570.709333 249.173333 560.128L249.173333 560.128zM249.173333 560.128M569.344 347.136c0-8.533333 3.413333-16.725333 9.557333-22.869333 5.802667-5.802667 14.336-9.557333 22.869333-9.557333 8.533333 0 16.725333 3.413333 22.869333 9.557333 5.802667 5.802667 9.557333 14.336 9.557333 22.869333 0 8.533333-3.413333 16.725333-9.557333 22.869333-5.802667 5.802667-14.336 9.557333-22.869333 9.557333-8.533333 0-16.725333-3.413333-22.869333-9.557333C573.098667 364.202667 569.344 355.669333 569.344 347.136L569.344 347.136zM569.344 347.136M459.093333 560.128c0-10.922667 4.437333-21.504 11.946667-29.013333 7.509333-7.509333 18.432-11.946667 29.013333-11.946667 10.922667 0 21.504 4.437333 29.013333 11.946667 7.509333 7.509333 11.946667 18.432 11.946667 29.013333 0 10.922667-4.437333 21.504-11.946667 29.013333-7.509333 7.509333-18.432 11.946667-29.013333 11.946667-10.922667 0-21.504-4.437333-29.013333-11.946667C463.530667 581.632 459.093333 570.709333 459.093333 560.128L459.093333 560.128zM459.093333 560.128M842.069333 868.693333 181.930667 868.693333C94.549333 868.693333 23.893333 797.696 23.893333 709.973333l0-659.456c0-87.722667 70.997333-158.72 158.378667-158.72l660.138667 0c87.381333 0 158.378667 70.997333 158.378667 158.72L1000.789333 709.973333C1000.448 797.696 929.450667 868.693333 842.069333 868.693333L842.069333 868.693333zM390.144 214.357333c-36.864 0-66.56 7.509333-103.765333 15.018667l-103.424-51.882667 29.696 89.088c-74.069333 51.882667-118.442667 118.442667-118.442667 200.021333 0 140.970667 133.461333 251.904 296.277333 251.904 145.749333 0 273.066667-88.746667 298.666667-207.872-9.557333 1.024-18.773333 1.706667-28.672 1.706667-140.629333 0-251.904-105.130667-251.904-234.496 0-21.504 3.413333-42.325333 9.216-62.122667C408.917333 214.698667 399.701333 214.357333 390.144 214.357333L390.144 214.357333zM827.050667 110.592l22.186667-74.069333-81.237333 44.373333c-29.696-7.509333-59.392-15.018667-88.746667-15.018667-140.970667 0-251.904 96.256-251.904 215.04 0 118.442667 110.933333 215.04 251.904 215.04 133.12 0 251.562667-96.597333 251.562667-215.04C930.816 214.357333 886.442667 154.965333 827.050667 110.592L827.050667 110.592zM827.050667 110.592M730.794667 347.136c0-8.533333 3.413333-16.725333 9.557333-22.869333 5.802667-5.802667 14.336-9.557333 22.869333-9.557333 8.533333 0 16.725333 3.413333 22.869333 9.557333 5.802667 5.802667 9.557333 14.336 9.557333 22.869333 0 8.533333-3.413333 16.725333-9.557333 22.869333-5.802667 5.802667-14.336 9.557333-22.869333 9.557333-8.533333 0-16.725333-3.413333-22.869333-9.557333C734.208 364.202667 730.794667 355.669333 730.794667 347.136L730.794667 347.136zM730.794667 347.136"  horiz-adv-x="1024" />

    
    <glyph glyph-name="ai36" unicode="&#59033;" d="M396.668 734.689l-156.299-156.272h117.226v-273.585h78.15v273.585h117.284l-156.361 156.272zM670.199 187.634v273.527h-78.151v-273.527h-117.226l156.299-156.332 156.36 156.332h-117.282z"  horiz-adv-x="1024" />

    
    <glyph glyph-name="changyonglogo30" unicode="&#59159;" d="M558.853609 354.787678c-5.992481-15.969717-14.864546-16.925485-29.41903-11.55722-74.724889 27.565822-151.403269 45.959751-231.69085 44.735877-26.421766-0.406253-52.598962-3.435239-77.098959-14.628162-55.722092-19.046798-91.966575-69.704548-93.702102-130.964774-1.63115-57.648978 32.541137-106.909915 90.372264-130.270972 0 0 1.515516-0.421602 1.518586-0.403183 2.920516-3.751441 6.767124-5.270027 11.470239-4.726651 1.790786-0.496304 3.586688-0.99363 5.373381-1.490957 3.919263-3.375887 8.335852-5.167696 13.592576-4.304026 89.48608-21.216207 170.990373-3.066849 244.941642 50.470485 26.627451 19.281135 50.306756 42.119283 71.082942 67.538209 9.695826 11.863189 17.325597 14.010085 32.042787 7.323802 96.749508-43.953048 193.84694-87.198991 291.448862-129.220037 2.056845-0.88516 3.89675-1.785669 5.548366-2.707668l0 131.038452c-2.402723 0.398066-5.228071 1.13894-8.576329 2.24411-76.577073 25.333992-153.587004 49.377594-230.770897 72.812329-18.502399 5.612834-24.74866 9.969049-13.081946 30.004361 23.36515 40.123836 38.177508 84.244706 51.572586 128.700197 5.02955 16.697287 5.048993 26.243711-17.920138 25.25008-42.317805-1.819438-84.785012 0.158612-127.159098-0.741897-15.397688-0.326435-20.611433 3.816932-20.405749 19.928888 0.496304 38.499849-0.369414 38.504966 37.427424 38.499849 51.187823-0.010233 102.386902 0.267083 153.578818-0.178055 12.880355-0.113587 20.509103 0.979304 20.49887 17.568121-0.014326 16.820084-8.324596 17.663288-20.842701 17.602913-56.789401-0.272199-113.585965 0.285502-170.373319-0.413416-15.332197-0.187265-21.464871 3.888564-20.162202 20.246113 1.518586 19.070334-0.496304 38.401612 0.568958 57.541531 0.778736 14.06739-3.034103 19.665899-18.22099 20.12434-77.943187 2.354628-78.58173 2.729158-78.512145-75.697029 0.014326-19.036565-6.982018-22.48306-23.889083-22.187325-51.18066 0.896416-102.381785 0.103354-153.579841 0.341784-12.631692 0.056282-20.545942-1.158383-20.401656-17.841344 0.149403-16.820084 8.073886-17.464767 20.803815-17.34811 48.793286 0.458441 97.594759 0.393973 146.381905 0.144286 32.639375-0.157589 28.555359 5.571902 30.594809-31.151487 1.237177-22.388916-5.662977-28.644387-27.932166-27.454282-37.487799 2.00875-75.16184 0.26299-112.757087 0.51677-12.130272 0.074701-21.541619 0.215918-21.536502-16.935718 0-17.845437 10.546194-16.158005 22.033829-16.147772 93.589538 0.130983 187.179077-0.422625 280.758382 0.581238 20.959358 0.224104 24.845874-5.646604 16.724917-23.918759C578.466296 403.664875 568.100204 379.419681 558.853609 354.787678zM494.436484 254.131187c-61.890582-72.052013-134.976134-119.030977-235.403404-104.142895-2.237971 0.327458-4.64274-0.431835-6.976902-0.684592-9.514701 3.854794-19.040658 7.638981-28.503171 11.585873-58.437947 24.367991-78.158081 86.941118-41.130769 131.695415 6.986111 8.44023 16.121166 15.108093 24.260543 22.591531 4.590552 2.474354 9.18008 4.951779 13.766538 7.42204 2.429329 0.914836 4.852518 1.828648 7.27673 2.743484l1.36509-0.50142 1.087774 0.956791c1.570775 0.435928 3.145643 0.867764 4.716418 1.299599 92.202958 14.20656 176.456874-12.665461 258.82586-49.795103C510.971066 269.520689 500.76768 261.498992 494.436484 254.131187z"  horiz-adv-x="1024" />

    
    <glyph glyph-name="wuuiconxiangjifangda" unicode="&#58912;" d="M512 896C230.4 896 0 665.6 0 384c0-281.6 230.4-512 512-512 281.6 0 512 230.4 512 512C1024 665.6 793.6 896 512 896zM716.8 332.8l-153.6 0 0-153.6c0-30.72-20.48-51.2-51.2-51.2s-51.2 20.48-51.2 51.2l0 153.6L307.2 332.8c-30.72 0-51.2 20.48-51.2 51.2 0 30.72 20.48 51.2 51.2 51.2l153.6 0L460.8 588.8c0 30.72 20.48 51.2 51.2 51.2s51.2-20.48 51.2-51.2l0-153.6 153.6 0c30.72 0 51.2-20.48 51.2-51.2C768 353.28 747.52 332.8 716.8 332.8z"  horiz-adv-x="1024" />

    
    <glyph glyph-name="big-Pay" unicode="&#59116;" d="M991.67 206.552v472.296c0 101.81-82.623 184.433-184.493 184.433h-590.414c-101.81 0-184.433-82.623-184.433-184.433v-590.414c0-101.81 82.563-184.433 184.433-184.433h590.414c90.717 0 166.206 65.595 181.615 151.876-48.926 21.165-260.941 112.722-371.385 165.427-84.062-101.81-172.082-162.908-304.771-162.908s-221.248 81.724-210.636 181.735c7.015 65.655 52.044 172.981 247.629 154.574 103.069-9.653 150.257-28.9 234.319-56.661 21.765 39.873 39.813 83.763 53.543 130.47h-372.764v36.935h184.433v66.314h-224.965v40.652h224.965v95.694c0 0 2.039 14.99 18.587 14.99h92.216v-110.684h239.835v-40.652h-239.835v-66.314h195.646c-17.988-73.209-45.269-140.483-79.446-199.243 56.841-20.566 315.503-99.652 315.503-99.652v0 0zM297.947 121.71c-140.183 0-162.368 88.499-154.933 125.494 7.375 36.815 47.967 84.842 125.914 84.842 89.578 0 169.803-22.904 266.097-69.792-67.633-88.079-150.736-140.543-237.077-140.543v0z"  horiz-adv-x="1024" />

    
    <glyph glyph-name="xunzhang" unicode="&#58893;" d="M861.318 401.571c-18.975 44.862-46.131 85.143-80.716 119.728-29.282 29.282-62.662 53.215-99.433 71.39l49.643 109.902c1.847 4.092 2.803 8.529 2.803 13.019v145.19c0 17.466-14.159 31.623-31.625 31.623h-375.516c-17.466 0-31.625-14.159-31.625-31.623v-145.19c0-4.649 1.025-9.239 3.002-13.447l51.057-108.671c-37.41-18.269-71.337-42.479-101.046-72.189-34.583-34.583-61.742-74.867-80.716-119.728-19.653-46.465-29.617-95.802-29.617-146.64 0-19.405 15.732-35.137 35.137-35.137s35.137 15.732 35.137 35.137c0 168.964 137.465 306.429 306.429 306.429s306.428-137.466 306.428-306.43c0-168.964-137.462-306.428-306.428-306.428-115.169 0-219.57 63.627-272.462 166.047-8.903 17.243-30.101 24-47.343 15.098-17.243-8.903-24.002-30.101-15.099-47.343 31.231-60.479 78.33-111.469 136.202-147.463 59.547-37.036 128.256-56.612 198.701-56.612 50.841 0 100.176 9.964 146.64 29.617 44.862 18.975 85.143 46.131 119.728 80.718 34.583 34.583 61.742 74.867 80.716 119.728 19.651 46.465 29.617 95.802 29.617 146.639 0 50.839-9.964 100.176-29.616 146.64zM408.012 616.428l-49.913 106.239v106.51h124.509v-130.115c0-17.466 14.159-31.623 31.625-31.623s31.625 14.159 31.625 31.623v130.115h124.509v-106.756l-48.115-106.521c-34.862 10.438-71.039 15.735-108.018 15.735-36.347-0.001-71.915-5.122-106.222-15.205zM514.234 19.662c62.843 0 121.924 24.473 166.361 68.908 44.435 44.437 68.908 103.517 68.908 166.361s-24.473 121.924-68.908 166.361c-44.437 44.437-103.517 68.909-166.361 68.909s-121.924-24.473-166.361-68.909-68.909-103.517-68.909-166.361 24.473-121.924 68.909-166.361c44.437-44.437 103.517-68.908 166.361-68.908zM514.234 419.923c90.977 0 164.994-74.016 164.994-164.995 0-90.977-74.016-164.994-164.994-164.994-90.978 0-164.995 74.016-164.995 164.994 0 90.979 74.017 164.995 164.995 164.995z"  horiz-adv-x="1024" />

    
    <glyph glyph-name="gongzi" unicode="&#58901;" d="M791.423479 689.682028l0 38.495756c0 12.706393-10.29139 23.016203-22.997784 23.016203L262.265704 751.193986c-12.706393 0-22.997784-10.308787-22.997784-23.016203l0-38.335097-4.492314 0c-58.845223 0-106.71958-47.874357-106.71958-106.701161l0-461.454814c0-58.8442 47.874357-106.718557 106.71958-106.718557l553.48074 0c58.82578 0 106.717534 47.874357 106.717534 106.718557L894.97388 583.141526C894.974903 640.894881 848.801281 687.981293 791.423479 689.682028zM848.944544 583.141526l0-138.719388-57.521065 0L791.423479 643.507382C823.387471 641.80767 848.944544 615.516888 848.944544 583.141526zM285.263487 705.181023l460.165448 0L745.428935 444.422138 285.263487 444.422138 285.263487 705.181023zM234.775606 643.829723l4.492314 0L239.26792 444.422138l-61.3513 0c-1.324158 0-2.577708-0.161682-3.830235-0.375553L174.086385 583.141526C174.087409 616.591359 201.3094 643.829723 234.775606 643.829723zM788.25737 60.981119 234.775606 60.981119c-33.467229 0-60.688197 27.239388-60.688197 60.705594L174.087409 398.803147c1.252527-0.214894 2.506077-0.375553 3.830235-0.375553l84.34806 0 506.161015 0 80.518848 0 0-276.740882C848.944544 88.220506 821.722552 60.981119 788.25737 60.981119zM565.636083 588.77892c7.873318 0 14.282285 6.389524 14.282285 14.263865 0 7.892761-6.408967 14.263865-14.282285 14.263865l-30.121018 0 28.600385 28.599362c5.564739 5.584182 5.564739 14.603603 0 20.169365-5.565762 5.584182-14.604626 5.584182-20.170388 0l-35.365462-35.347043-35.364439 35.347043c-5.565762 5.584182-14.603603 5.584182-20.151969 0-5.584182-5.565762-5.584182-14.586207 0-20.169365l28.580942-28.599362-30.121018 0c-7.874341 0-14.263865-6.371104-14.263865-14.263865 0-7.874341 6.389524-14.263865 14.263865-14.263865l42.791595 0 0-28.509311-42.791595 0c-7.874341 0-14.263865-6.389524-14.263865-14.282285 0-7.874341 6.389524-14.263865 14.263865-14.263865l42.791595 0 0-38.031175c0-7.891737 6.390547-14.262842 14.263865-14.262842 7.874341 0 14.263865 6.371104 14.263865 14.262842l0 38.031175L565.636083 531.723459c7.873318 0 14.282285 6.389524 14.282285 14.263865 0 7.891737-6.408967 14.282285-14.282285 14.282285l-42.790572 0 0 28.509311L565.636083 588.77892z"  horiz-adv-x="1024" />

    
    <glyph glyph-name="weixin2" unicode="&#58943;" d="M693.12 548.736c11.776 0 23.36-0.896 35.008-2.176-31.36 146.048-187.456 254.528-365.696 254.528C163.2 801.088 0 665.344 0 492.864c0-99.52 54.272-181.248 145.024-244.736L108.8 139.136l126.72 63.488c45.312-8.896 81.664-18.112 126.912-18.112 11.392 0 22.656 0.512 33.792 1.344-7.04 24.256-11.2 49.6-11.2 76.032C385.088 420.224 521.024 548.736 693.12 548.736zM498.304 646.976c27.392 0 45.376-17.984 45.376-45.248 0-27.136-17.984-45.312-45.376-45.312-27.072 0-54.336 18.176-54.336 45.312C443.968 629.056 471.168 646.976 498.304 646.976zM244.672 556.416c-27.2 0-54.592 18.176-54.592 45.312 0 27.264 27.392 45.248 54.592 45.248S289.92 629.056 289.92 601.728C289.92 574.592 271.872 556.416 244.672 556.416zM1024 266.24c0 144.896-145.024 262.976-307.904 262.976-172.48 0-308.224-118.144-308.224-262.976 0-145.28 135.808-262.976 308.224-262.976 36.096 0 72.512 9.024 108.736 18.112l99.392-54.528-27.264 90.624C969.728 112.128 1024 184.512 1024 266.24zM616.128 311.616c-17.984 0-36.224 17.92-36.224 36.224 0 18.048 18.24 36.224 36.224 36.224 27.52 0 45.376-18.176 45.376-36.224C661.504 329.536 643.648 311.616 616.128 311.616zM815.488 311.616c-17.856 0-36.032 17.92-36.032 36.224 0 18.048 18.112 36.224 36.032 36.224 27.264 0 45.376-18.176 45.376-36.224C860.864 329.536 842.752 311.616 815.488 311.616z"  horiz-adv-x="1024" />

    
    <glyph glyph-name="phone" unicode="&#58897;" d="M722.051 896h-420.103c-43.323 0-78.769-35.446-78.769-78.769v-866.462c0-43.323 35.446-78.769 78.769-78.769h420.103c43.323 0 78.769 35.446 78.769 78.769v866.462c0 43.323-35.446 78.769-78.769 78.769zM748.308-49.231c0-14.178-12.078-26.256-26.256-26.256h-420.103c-14.178 0-26.256 12.078-26.256 26.256v52.513h472.615v-52.513zM748.308 55.795h-472.615v656.41h472.615v-656.41zM748.308 764.718h-472.615v52.513c0 14.178 12.078 26.256 26.256 26.256h420.103c14.178 0 26.256-12.078 26.256-26.256v-52.513z"  horiz-adv-x="1024" />

    
    <glyph glyph-name="qutouzi" unicode="&#59215;" d="M513.115468 896C229.786492 896 0 666.213508 0 382.884532c0-60.235294 11.154684-122.701525 33.464052-180.705883l8.923748-15.616557c4.461874-8.923747 11.154684-11.154684 20.078431-11.154685h2.230937c4.461874 0 11.154684 2.230937 15.616557 4.461874l176.244009 149.472767 136.087146-122.701525c8.923747-8.923747 22.309368-6.69281 31.233116 0l336.871459 323.485839v-178.474946c0-13.385621 8.923747-22.309368 22.309369-22.309368s22.309368 8.923747 22.309368 22.309368V585.899782c0 13.385621-8.923747 22.309368-22.309368 22.309368H546.579521c-13.385621 0-22.309368-8.923747-22.309368-22.309368s8.923747-22.309368 22.309368-22.309368h178.474945L403.799564 255.721133l-133.856209 122.701525c-8.923747 6.69281-20.078431 6.69281-29.002179 0l-169.551198-145.010893C53.542484 282.492375 44.618736 331.572985 44.618736 382.884532 44.618736 641.673203 254.326797 851.381264 513.115468 851.381264s468.496732-209.708061 468.496732-468.496732-209.708061-468.496732-468.496732-468.496732c-149.472767 0-285.559913 69.159041-374.797385 187.398692-6.69281 8.923747-22.309368 11.154684-31.233116 4.461874-8.923747-6.69281-11.154684-22.309368-4.461873-31.233115C200.784314-54.379085 350.257081-128 513.115468-128c283.328976 0 513.115468 229.786492 513.115469 513.115468S794.213508 896 513.115468 896z"  horiz-adv-x="1026" />

    
    <glyph glyph-name="yiliaojiufen" unicode="&#58930;" d="M935.073684-90.273684H167.073684c-37.726316 0-67.368421 29.642105-67.368421 67.368421V602.273684c0 37.726316 29.642105 67.368421 67.368421 67.368421h768c37.726316 0 67.368421-29.642105 67.368421-67.368421v-625.178947c0-35.031579-29.642105-67.368421-67.368421-67.368421zM167.073684 642.694737c-21.557895 0-40.421053-18.863158-40.421052-40.421053v-625.178947c0-21.557895 18.863158-40.421053 40.421052-40.421053h768c21.557895 0 40.421053 18.863158 40.421053 40.421053V602.273684c0 21.557895-18.863158 40.421053-40.421053 40.421053H167.073684zM768 642.694737H334.147368V774.736842c0 26.947368 21.557895 51.2 51.2 51.2h334.147369c26.947368 0 51.2-21.557895 51.2-51.2v-132.042105z m-406.905263 26.947368h379.957895V774.736842c0 13.473684-10.778947 24.252632-24.252632 24.252632H385.347368c-13.473684 0-24.252632-10.778947-24.252631-24.252632v-105.094737zM627.873684 92.968421H485.052632v123.957895h-123.957895V357.052632H485.052632v123.957894h142.821052V357.052632h123.957895v-142.821053h-123.957895v-121.263158z m-115.873684 26.947368h88.926316v123.957895h123.957895V330.105263h-123.957895v123.957895H512V330.105263h-123.957895v-88.926316H512v-121.263158z"  horiz-adv-x="1131" />

    
    <glyph glyph-name="liebiaocaidan" unicode="&#58886;" d="M788.7 771.4H600.1c-15.5 35.5-50.6 60.4-91.6 60.4-41 0-76.2-24.9-91.6-60.4H228.3c-33.2 0-60-27-60-60.4v-684.8c0-33.4 26.9-60.4 60-60.4h560.4c33.2 0 60 27.1 60 60.4V710.9c0 33.4-26.9 60.5-60 60.5m-90.1-684.8H318.4c-16.6 0-30 13.5-30 30.2s13.4 30.2 30 30.2h380.2c16.6 0 30-13.5 30-30.2s-13.4-30.2-30-30.2m0 161.1H328.4c-3.1-1.1-6.5 0-10 0-16.6 0-30 13.5-30 30.2s13.4 30.2 30 30.2c3.5 0 6.9 1.1 10 0h370.2c16.6 0 30-13.5 30-30.2s-13.4-30.2-30-30.2m0 161.1H318.4c-16.6 0-30 13.5-30 30.2s13.4 30.2 30 30.2h380.2c16.6 0 30-13.5 30-30.2 0-16.6-13.4-30.2-30-30.2m0 161.2H318.4c-16.6 0-30 13.5-30 30.2s13.4 30.2 30 30.2h380.2c16.6 0 30-13.5 30-30.2s-13.4-30.2-30-30.2m0 0"  horiz-adv-x="1024" />

    
    <glyph glyph-name="xiayiyeqianjinchakangengduo-xianxingyuankuang" unicode="&#59632;" d="M512 768c212 0 384-172 384-384s-172-384-384-384-384 172-384 384 172 384 384 384m0 64C264.8 832 64 631.2 64 384s200.8-448 448-448 448 200.8 448 448S759.2 832 512 832zM398.4 656l-45.6-45.6L580 384 353.6 157.6l45.6-45.6 272 272-272.8 272z"  horiz-adv-x="1024" />

    
    <glyph glyph-name="xiayiyeqianjinchakangengduo-yuankuang" unicode="&#59633;" d="M512 832C264.8 832 64 631.2 64 384s200.8-448 448-448 448 200.8 448 448S759.2 832 512 832zM398.4 112l-45.6 45.6L580 384 353.6 610.4l45.6 45.6 272-272-272.8-272z"  horiz-adv-x="1024" />

    
    <glyph glyph-name="xiayiyeqianjinchakangengduo" unicode="&#59634;" d="M658.56 338.608L322.536 674.616l45.248 45.256 336.016-336.008zM704.088 383.8L364.12 43.84l-45.256 45.248 339.976 339.976z"  horiz-adv-x="1024" />

    
    <glyph glyph-name="line-chart_icon" unicode="&#58970;" d="M984.22-60.44h-916.66v916.66c0 15.342-12.438 27.78-27.78 27.78s-27.78-12.438-27.78-27.78v-944.44c-0-0.006-0-0.013-0-0.020 0-15.331 12.429-27.76 27.76-27.76 0.007 0 0.014 0 0.021 0l944.439-0c15.342 0 27.78 12.438 27.78 27.78 0 15.342-12.438 27.78-27.78 27.78zM150.89 175.67c0.009-0 0.020-0 0.030-0 7.661 0 14.596 3.111 19.609 8.139l251.191 251.191 160.92-160.92c5.026-5.028 11.97-8.137 19.64-8.137s14.614 3.11 19.64 8.137l270.83 270.84c5.026 5.026 8.135 11.97 8.135 19.64 0 15.34-12.435 27.775-27.775 27.775-7.67 0-14.614-3.109-19.64-8.135l-251.19-251.2-160.92 160.92c-5.026 5.028-11.97 8.137-19.64 8.137s-14.614-3.11-19.64-8.137l-270.83-270.84c-5.025-5.027-8.133-11.97-8.133-19.64 0-15.34 12.434-27.776 27.773-27.78z"  horiz-adv-x="1024" />

    
    <glyph glyph-name="pie-chart_icon" unicode="&#58975;" d="M512 356.21h472.21c0.009-0 0.019-0 0.030-0 15.331 0 27.76 12.429 27.76 27.76 0 0.011-0 0.021-0 0.032 0 275.688-224.31 499.998-500 499.998-0.006 0-0.013 0-0.020 0-15.331 0-27.76-12.429-27.76-27.76 0-0.014 0-0.028 0-0.042l-0-472.198c-0-0.009-0-0.019-0-0.030 0-15.331 12.429-27.76 27.76-27.76 0.007 0 0.014 0 0.021 0zM539.77 827.56c223-13.81 402-192.81 415.79-415.79h-415.79zM992.38 279.17c-2.435 0.772-5.235 1.217-8.14 1.217-12.433 0-22.962-8.156-26.526-19.41-59.104-192.337-233.914-321.427-435.054-321.427-250.95 0-455.1 204.15-455.1 455.1 0 201.14 129.090 375.95 321.23 435 11.454 3.602 19.617 14.125 19.617 26.555 0 15.344-12.438 27.782-27.782 27.782-2.914 0-5.723-0.449-8.362-1.28-215.403-66.216-360.263-262.366-360.263-488.056 0-281.58 229.080-510.65 510.66-510.65 225.69 0 421.84 144.86 488.11 360.46 0.774 2.436 1.22 5.238 1.22 8.144 0 12.43-8.158 22.955-19.413 26.512z"  horiz-adv-x="1024" />

    
    <glyph glyph-name="set" unicode="&#58898;" d="M825.6 248.8l-6.4-12.8 8-12 78.4-116 3.2 31.2-139.2-135.2 29.6 3.2-127.2 76-10.4 6.4-11.2-4.8c-8-3.2-16-6.4-24.8-9.6l-13.6-4.8-3.2-13.6-28-131.2 24 19.2h-196.8l24-18.4-34.4 137.6-3.2 12-12 4.8c-7.2 3.2-14.4 5.6-21.6 9.6l-12 5.6-11.2-7.2-120-76.8 30.4-3.2-139.2 136 4-30.4 77.6 124 7.2 11.2-5.6 12c-4 8-7.2 16.8-9.6 24.8l-4.8 12.8-13.6 2.4-134.4 28 19.2-24v192l-18.4-24 141.6 33.6 12 3.2 4.8 12c3.2 8 7.2 16.8 11.2 24.8l6.4 12.8-81.6 122.4-3.2-31.2 138.4 136.8-30.4-4 132.8-80.8 11.2 4.8c6.4 2.4 13.6 5.6 20 8l12.8 4 3.2 12.8 32.8 132.8-24-18.4h197.6l-24 19.2 28.8-136 2.4-12.8 12.8-4.8c10.4-4 20-8 29.6-12.8l12-5.6 11.2 7.2 113.6 71.2-28.8 3.2 140-134.4-4 30.4-76-120-7.2-11.2 5.6-12c3.2-8 7.2-16.8 9.6-24.8l4-12.8 12.8-3.2 134.4-32-18.4 24v-192l19.2 24-141.6-28.8-12.8-2.4-4.8-12c-2.4-6.4-5.6-13.6-8.8-20zM857.6 260l4.8-24 160.8 32.8v231.2l-18.4 4.8-134.4 32-5.6-24 23.2 8c-3.2 9.6-7.2 19.2-11.2 28.8l-22.4-9.6 20.8-12.8 76 120 10.4 16.8-14.4 13.6-140 134.4-13.6 12-16-10.4-113.6-71.2 12.8-20.8 11.2 22.4c-11.2 5.6-22.4 10.4-34.4 14.4l-8.8-22.4 24 4.8-28.8 136-4 19.2h-235.2l-4.8-18.4-32.8-132.8 24-5.6-8 23.2c-8-2.4-15.2-5.6-23.2-8.8l9.6-22.4 12.8 20.8-139.2 83.2-13.6-13.6-138.4-136.8-14.4-14.4 11.2-16.8 73.6-109.6 20 13.6-21.6 10.4c-4.8-9.6-8.8-18.4-12.8-28l22.4-9.6-5.6 24-141.6-33.6-18.4-4v-231.2l19.2-4 135.2-27.2 4.8 24-23.2-8c3.2-9.6 7.2-19.2 11.2-28.8l22.4 9.6-20.8 12.8-77.6-124-10.4-16.8 14.4-13.6 139.2-135.2 13.6-13.6 16 10.4 120 76.8-12.8 20.8-10.4-22.4c8-4 16.8-7.2 24.8-10.4l8.8 22.4-24-5.6 34.4-137.6 4.8-18.4h235.2l4 19.2 28 131.2-24 4.8 8-23.2c9.6 3.2 18.4 6.4 28 10.4l-9.6 22.4-12.8-20.8 143.2-85.6 13.6 12.8 139.2 136 14.4 14.4-11.2 16.8-78.4 116-20-13.6 21.6-11.2c4 8 8 16 11.2 24l-22.4 9.6zM512 214.4c-100 0-181.6 81.6-181.6 181.6s81.6 181.6 181.6 181.6 181.6-81.6 181.6-181.6-81.6-181.6-181.6-181.6zM512 529.6c-73.6 0-133.6-60-133.6-133.6s60-133.6 133.6-133.6 133.6 60 133.6 133.6-60 133.6-133.6 133.6z"  horiz-adv-x="1024" />

    
    <glyph glyph-name="ren1" unicode="&#58947;" d="M393.728 391.0144A230.4 230.4 0 1 0 512 358.4 332.8 332.8 0 0 1 179.2 25.6a25.6 25.6 0 0 0-51.2 0 384.1536 384.1536 0 0 0 265.728 365.4144zM512 409.6a179.2 179.2 0 1 1 0 358.4 179.2 179.2 0 0 1 0-358.4z m384-384a25.6 25.6 0 0 0-51.2 0 331.776 331.776 0 0 1-108.8 246.1696 25.6 25.6 0 0 0 34.4576 37.888A382.976 382.976 0 0 0 896 25.6z"  horiz-adv-x="1024" />

    
    <glyph glyph-name="female" unicode="&#58926;" d="M987.908309-51.81985899999995l-44.799048 149.116831a264.314383 264.314383 0 0 1-186.876029 183.676097l-12.799728 3.839919h-5.119891a49.918939 49.918939 0 0 1-46.719007-14.079701 237.434955 237.434955 0 0 0-177.276233-93.438015 241.914859 241.914859 0 0 0-179.196192 92.798029 47.99898 47.99898 0 0 1-47.99898 14.719687h-5.119892l-12.159741-3.839919a264.314383 264.314383 0 0 1-187.516015-184.316083L34.968559-53.09983199999999a59.518735 59.518735 0 0 1 10.239782-51.838898 58.238762 58.238762 0 0 1 47.99898-23.03951H930.949519a59.518735 59.518735 0 0 1 47.358994 24.959469 58.238762 58.238762 0 0 1 9.599796 51.198912z m-57.598776-17.279633a19.199592 19.199592 0 0 0-15.359674-7.679836H108.566995a16.639646 16.639646 0 0 0-14.079701 6.399864 19.839578 19.839578 0 0 0-3.839918 16.639646l43.519075 138.877049A216.315403 216.315403 0 0 0 290.963119 231.05413l10.879769 3.199932h3.839918a10.879769 10.879769 0 0 0 8.95981 0 270.074261 270.074261 0 0 1 197.115811-99.837878 266.234343 266.234343 0 0 1 198.395784 98.557905 11.519755 11.519755 0 0 0 9.599796 0h3.839919l11.519755-3.199932a214.395444 214.395444 0 0 0 154.236722-145.916899l41.599116-136.95709a17.279633 17.279633 0 0 0 0-15.99966zM129.04656 368.651206l27.519415-7.03985a1450.209183 1450.209183 0 0 1 230.395104-37.119211 181.756138 181.756138 0 0 1 127.99728-57.598776 179.836178 179.836178 0 0 1 127.99728 58.238762 1515.487796 1515.487796 0 0 1 223.99524 36.479225l27.519416 7.03985a42.879089 42.879089 0 0 1 25.599456 23.679497 39.03917 39.03917 0 0 1 0 34.559266l-74.238423 127.99728a730.224483 730.224483 0 0 0-60.798708 137.597076L774.152851 704.0040799999999A266.234343 266.234343 0 0 1 594.316673 881.280313L582.156931 885.760218a271.354234 271.354234 0 0 1-146.556885 0l-10.879769-3.839919A264.314383 264.314383 0 0 1 244.244112 704.0040799999999l-4.479905-16.639646a671.98572 671.98572 0 0 0-63.99864-136.95709l-73.598436-127.99728a40.319143 40.319143 0 0 1 0-36.479225 36.479225 36.479225 0 0 1 26.879429-17.279633z m383.99184-53.758857c-88.95811 0-167.676437 108.797688-175.99626 238.07494 138.877049-26.879429 209.915539 29.439374 236.794968 72.318464a119.03747 119.03747 0 0 1 115.197552-37.759198V576.0068c0-138.877049-82.558246-261.114451-175.99626-261.114451zM226.964479 535.0476699999999a624.626727 624.626727 0 0 1 60.158722 136.95709L290.963119 689.924379a191.99592 191.99592 0 0 0 143.356954 135.037131l10.239782 3.839918a272.634207 272.634207 0 0 0 132.477185 0l12.159742-3.839918a188.156002 188.156002 0 0 0 135.03713-133.117172l7.03985-23.03951a675.825639 675.825639 0 0 1 59.518736-133.757158l70.398504-117.757497-26.879429-6.399864a1253.093372 1253.093372 0 0 0-165.116491-29.439375 365.432235 365.432235 0 0 1 60.158721 203.515675 238.714927 238.714927 0 0 1 0 37.759198 21.759538 21.759538 0 0 1-8.959809 13.439714 21.119551 21.119551 0 0 1-15.359674 0 87.03815 87.03815 0 0 0-111.357634 39.039171 19.839578 19.839578 0 0 1-17.919619 8.95981 17.919619 17.919619 0 0 1-17.919619-10.239783C537.357883 640.00544 479.119121 561.927099 319.122521 601.606256a19.839578 19.839578 0 0 1-16.639647-3.839919 17.919619 17.919619 0 0 1-7.03985-14.719687A375.032031 375.032031 0 0 1 354.961759 380.17096100000003a1394.530366 1394.530366 0 0 0-171.516355 29.439375l-26.239443 7.03985z"  horiz-adv-x="1024" />

    
    <glyph glyph-name="zhuzhuangtu" unicode="&#58644;" d="M398.222 497.778H170.667v-455.111h227.555v455.11z m-56.889-398.222H227.556V440.889h113.777v-341.333z m341.334 568.888H455.11v-625.777h227.556V668.444z m-56.89-568.888H512v512h113.778v-512zM739.557 839.11v-796.444H967.11V839.11H739.556z m170.666-739.555H796.444V782.222h113.778v-682.666zM113.778 839.111h-56.89V-71.11h910.223v56.889H113.778z"  horiz-adv-x="1024" />

    
    <glyph glyph-name="mulu" unicode="&#58888;" d="M370.1 524.5h-49.6c-3.1 0-5.7 2.5-5.7 5.7v49.6c0 3.1 2.5 5.7 5.7 5.7h49.6c3.1 0 5.7-2.5 5.7-5.7v-49.6c0-3.1-2.6-5.7-5.7-5.7z m333.5 7.6H460.5c-3.1 0-5.7 2.5-5.7 5.7v34.5c0 3.1 2.5 5.7 5.7 5.7h243.2c3.1 0 5.7-2.5 5.7-5.7v-34.5c-0.1-3.2-2.7-5.7-5.8-5.7zM370.1 183.6h-49.6c-3.1 0-5.7 2.5-5.7 5.7v49.6c0 3.1 2.5 5.7 5.7 5.7h49.6c3.1 0 5.7-2.5 5.7-5.7v-49.6c0-3.2-2.6-5.7-5.7-5.7z m333.5 7.5H460.5c-3.1 0-5.7 2.5-5.7 5.7v34.5c0 3.1 2.5 5.7 5.7 5.7h243.2c3.1 0 5.7-2.5 5.7-5.7v-34.5c-0.1-3.1-2.7-5.7-5.8-5.7zM370.1 353.5h-49.6c-3.1 0-5.7 2.5-5.7 5.7v49.6c0 3.1 2.5 5.7 5.7 5.7h49.6c3.1 0 5.7-2.5 5.7-5.7v-49.6c0-3.1-2.6-5.7-5.7-5.7z m333.5 7.6H460.5c-3.1 0-5.7 2.5-5.7 5.7v34.5c0 3.1 2.5 5.7 5.7 5.7h243.2c3.1 0 5.7-2.5 5.7-5.7v-34.5c-0.1-3.2-2.7-5.7-5.8-5.7zM847.1 335.6V645.9s0 24.7-14 46.4c-10.8 16.8-30 31.8-64.2 31.8h-261c-0.2 0-0.3 0-0.5-0.1H255s-78.1 0-78.1-78.1l0.1-213.4V122s0-24.7 13.9-46.3c10.8-16.8 30-31.8 64.2-31.8h261.1c0.2 0 0.3 0 0.5 0.1H769s78.1 0 78.1 78.1l-0.1 213.4 0.1 0.1z m-39-213.6c-1.3-38.5-38.9-39-38.9-39h-514c-1.3 0.1-2.5 0.2-3.8 0.3-5.4 1.1-15.7 4.1-23.9 11.7-9 9.7-11.2 22.3-11.7 26.1v0.7l0.1 524.2c1.3 38.5 38.9 39 38.9 39h514c1.3-0.1 2.5-0.2 3.7-0.3 5.4-1.1 15.7-4.1 23.9-11.7 9-9.7 11.2-22.2 11.7-26 0-0.2 0-0.5 0.1-0.7l-0.1-524.3z"  horiz-adv-x="1024" />

    
    <glyph glyph-name="navicon-wgddgl" unicode="&#58991;" d="M747.008 683.52H278.528c-14.336 0-25.6 11.264-25.6 25.6V849.92c0 14.336 11.264 25.6 25.6 25.6h468.48c14.336 0 25.6-11.264 25.6-25.6v-140.8c0-14.336-11.264-25.6-25.6-25.6z m-442.88 51.2h417.28V824.3199999999999H304.128v-89.6zM946.176-112.63999999999999H79.36c-14.336 0-25.6 11.264-25.6 25.6V779.776c0 14.336 11.264 25.6 25.6 25.6h199.168c14.336 0 25.6-11.264 25.6-25.6s-11.264-25.6-25.6-25.6H104.96V-61.440000000000055h815.616V754.1759999999999h-173.568c-14.336 0-25.6 11.264-25.6 25.6s11.264 25.6 25.6 25.6h199.168c14.336 0 25.6-11.264 25.6-25.6V-87.03999999999996c0-14.336-11.264-25.6-25.6-25.6zM470.016 283.648c1.536-21.504 4.096-42.496 7.168-63.488-49.664-32.768-82.944-58.368-99.84-76.8l-30.208 41.984c6.656 8.192 10.24 19.456 10.24 34.304v131.584h-41.984V404.48h96.256v-161.792c12.288 8.192 32.256 21.504 58.368 40.96zM385.536 542.2080000000001c16.896-22.528 34.304-48.64 53.248-79.36l-52.736-31.744c-18.944 35.328-35.328 62.976-48.64 83.456l48.128 27.648z m64.512-24.064h270.848v-56.32h-73.728v-248.832c0-16.896-2.56-30.208-8.192-39.936s-13.824-17.408-24.576-21.504c-10.752-4.096-48.64-6.656-114.176-6.656-4.096 22.528-9.216 43.52-15.36 63.488 20.48-1.536 39.424-2.048 56.832-2.048 11.776 0 20.48 0.512 25.6 2.048 5.12 1.024 9.728 4.096 12.8 9.216 3.584 5.12 5.12 11.776 5.12 19.968V461.824H450.048v56.32z"  horiz-adv-x="1024" />

    
    <glyph glyph-name="CombinedShape" unicode="&#58881;" d="M512-128C229.239467-128 0 101.23946699999999 0 384 0 666.760533 229.239467 896 512 896c282.760533 0 512-229.239467 512-512 0-282.760533-229.239467-512-512-512z m37.614933 542.037333h163.4304c20.753067 0 37.751467 16.1792 37.751467 36.181334 0 19.899733-16.861867 36.181333-37.751467 36.181333H310.818133C290.065067 486.4 273.066667 470.254933 273.066667 450.218667c0-19.8656 16.861867-36.181333 37.751466-36.181334h163.4304v-120.354133H310.818133c-20.753067 0-37.751467-16.145067-37.751466-36.181333 0-20.002133 16.861867-36.181333 37.751466-36.181334h163.4304v-108.3392c0-19.899733 16.861867-36.181333 37.751467-36.181333 20.8896 0 37.751467 16.145067 37.751467 36.181333v108.373334h163.4304c20.753067 0 37.751467 16.145067 37.751466 36.181333 0 20.002133-16.861867 36.1472-37.751466 36.1472h-163.566934V414.037333zM409.6 691.2c-18.773333 0-34.133333-15.2576-34.133333-34.133333v-68.266667c0-18.773333 15.223467-34.133333 34.133333-34.133333 18.773333 0 34.133333 15.2576 34.133333 34.133333V657.066667c0 18.875733-15.2576 34.133333-34.133333 34.133333z m204.8 0c-18.773333 0-34.133333-15.2576-34.133333-34.133333v-68.266667c0-18.773333 15.223467-34.133333 34.133333-34.133333 18.773333 0 34.133333 15.2576 34.133333 34.133333V657.066667c0 18.875733-15.36 34.133333-34.133333 34.133333z"  horiz-adv-x="1024" />

    
    <glyph glyph-name="shezhi" unicode="&#59006;" d="M960 346.23v75.54a32 32 0 0 1-25.72 31.38l-97.59 19.52a32.13 32.13 0 0 0-23.86 20.62Q808 506.63 802 519.41a32.15 32.15 0 0 0 2.28 31.48l55.21 82.81a32 32 0 0 1-4 40.38l-53.41 53.41a32 32 0 0 1-40.38 4l-82.81-55.21a32.15 32.15 0 0 0-31.48-2.28q-12.77 6-26.13 10.82a32.13 32.13 0 0 0-20.62 23.86l-19.52 97.6A32 32 0 0 1 549.77 832h-75.54a32 32 0 0 1-31.38-25.72l-19.52-97.59a32.13 32.13 0 0 0-20.62-23.86Q389.37 680 376.59 674a32.15 32.15 0 0 0-31.48 2.28l-82.81 55.21a32 32 0 0 1-40.38-4l-53.41-53.41a32 32 0 0 1-4-40.38l55.21-82.81a32.15 32.15 0 0 0 2.28-31.48q-6-12.77-10.82-26.13a32.13 32.13 0 0 0-23.86-20.62l-97.6-19.52A32 32 0 0 1 64 421.77v-75.53a32 32 0 0 1 25.72-31.38l97.59-19.52a32.13 32.13 0 0 0 23.86-20.62Q216 261.37 222 248.59a32.15 32.15 0 0 0-2.28-31.48l-55.21-82.81a32 32 0 0 1 4-40.38l53.41-53.41a32 32 0 0 1 40.38-4l82.81 55.21a32.15 32.15 0 0 0 31.48 2.28q12.77-6 26.13-10.82a32.13 32.13 0 0 0 20.62-23.86l19.52-97.59A32 32 0 0 1 474.23-64h75.53a32 32 0 0 1 31.38 25.72l19.52 97.59a32.13 32.13 0 0 0 20.62 23.86Q634.63 88 647.41 94a32.15 32.15 0 0 0 31.48-2.28l82.81-55.21a32 32 0 0 1 40.38 4l53.41 53.41a32 32 0 0 1 4 40.38l-55.21 82.81a32.15 32.15 0 0 0-2.28 31.48q6 12.77 10.82 26.13a32.13 32.13 0 0 0 23.86 20.62l97.59 19.52A32 32 0 0 1 960 346.23z m-312.24-98A192 192 0 1 0 704 384a190.74 190.74 0 0 0-56.24-135.76z"  horiz-adv-x="1024" />

    
    <glyph glyph-name="lv_xunzhang" unicode="&#58716;" d="M734 510l78 135c3 6 3 9 3 15V804c0 30-24 30-54 30H215c-6 0-15-3-21-9-6-6-9-12-9-21v-144c0-6 0-9 3-15L275 489C218 429 182 351 182 261c0-183 147-330 330-330s330 147 330 330c3 99-42 189-108 249zM755 669l-72-123c-6 3-15 9-21 12V774h93v-105z m-240-75c-42 0-81-9-120-24V774h210v-192c-30 6-60 12-90 12z m-270 180h90v-231c-3-3-9-6-12-9l-78 135V774z m270-780c-150 0-270 120-270 270s120 270 270 270 270-120 270-270-123-270-270-270zM515 444c-99 0-180-81-180-180s81-180 180-180 180 81 180 180-81 180-180 180z m0-300c-66 0-120 54-120 120s54 120 120 120 120-54 120-120-54-120-120-120z"  horiz-adv-x="1024" />

    
    <glyph glyph-name="shezhi1" unicode="&#59216;" d="M912 547.2c11.2-28.8 4.8-62.4-16-84.8-40-43.2-40-112 0-156.8 20.8-22.4 27.2-56 16-84.8-14.4-36.8-35.2-72-59.2-102.4-19.2-24-51.2-35.2-80-28.8-28.8 6.4-57.6 1.6-83.2-12.8s-43.2-38.4-52.8-65.6c-9.6-30.4-35.2-51.2-65.6-56-19.2-1.6-40-3.2-59.2-3.2-19.2 0-40 1.6-59.2 4.8-30.4 4.8-56 25.6-65.6 56-17.6 57.6-76.8 91.2-136 78.4-30.4-6.4-60.8 4.8-80 28.8-24 32-44.8 65.6-59.2 102.4-11.2 28.8-4.8 62.4 16 84.8 40 43.2 40 112 0 156.8-20.8 22.4-27.2 56-16 84.8 14.4 36.8 35.2 72 59.2 102.4 19.2 24 51.2 35.2 81.6 28.8 28.8-6.4 57.6-1.6 83.2 12.8s43.2 38.4 52.8 65.6c9.6 30.4 35.2 51.2 65.6 56 38.4 4.8 78.4 4.8 118.4 0 30.4-4.8 56-25.6 65.6-56 8-27.2 27.2-51.2 52.8-65.6 25.6-14.4 54.4-19.2 83.2-12.8 30.4 6.4 62.4-4.8 80-28.8 22.4-33.6 43.2-67.2 57.6-104z m-59.2-24c-12.8 30.4-30.4 60.8-51.2 86.4-3.2 4.8-9.6 6.4-16 4.8-43.2-9.6-89.6-3.2-128 19.2-40 22.4-68.8 59.2-81.6 102.4-1.6 6.4-6.4 11.2-12.8 11.2-33.6 4.8-67.2 4.8-100.8 0-6.4-1.6-11.2-4.8-12.8-11.2-12.8-43.2-41.6-80-81.6-102.4-38.4-22.4-84.8-28.8-129.6-19.2-6.4 1.6-12.8-1.6-16-4.8-20.8-27.2-38.4-56-51.2-86.4-1.6-6.4-1.6-12.8 3.2-17.6 62.4-68.8 62.4-174.4 0-243.2-4.8-4.8-4.8-11.2-3.2-16 12.8-32 30.4-60.8 49.6-86.4 3.2-4.8 11.2-6.4 16-6.4C328 174.4 419.2 120 448 32c1.6-6.4 6.4-9.6 12.8-11.2 16-1.6 33.6-3.2 49.6-3.2 17.6 0 33.6 1.6 51.2 3.2 6.4 1.6 11.2 4.8 12.8 11.2 12.8 43.2 41.6 80 81.6 102.4 38.4 22.4 84.8 28.8 129.6 19.2 6.4-1.6 12.8 1.6 16 4.8 20.8 27.2 38.4 56 51.2 86.4 1.6 4.8 1.6 12.8-3.2 17.6-62.4 68.8-62.4 174.4 0 243.2 4.8 4.8 4.8 11.2 3.2 17.6zM505.6 224c-88 0-160 72-160 160s72 160 160 160 160-72 160-160-70.4-160-160-160z m0 64c52.8 0 96 43.2 96 96s-43.2 96-96 96-96-43.2-96-96 43.2-96 96-96z"  horiz-adv-x="1024" />

    
    <glyph glyph-name="shuiguo" unicode="&#58940;" d="M476.6 632.6s3.2 71.3-96.9 85.2c0.1-0.1-23.3-105.5 96.9-85.2zM904.2 460.5c-10.4 10.7-20.7 18.6-29.8 24.4 1.4 1.4 2.7 2.9 4.1 4.4 19.5 21.4 29 37.9 29.6 51.9 0.4 8.5-2.4 16.4-7.9 22.2-5.5 5.8-20.6 20.3-43.4 28.9-22.9 8.6-45.4 8-65-1.9-28.1-14.1-35.4-31.7-36.5-44.1-1.4-15.2 5.9-30 20-40.6 3-2.3 5.8-4.1 8.3-5.7 6.2-4 7.5-5 8.9-8.1 2-4.5 4.1-14.9 2.8-38.5-0.1-2.2-0.2-4.5-0.3-6.9-1.1-24.7-2.9-61.9-23.3-94.9-16-25.8-41.6-45.5-76.3-59 7.3 11 13.6 23.3 18.7 36.8 12.3 32.5 17.3 69.7 14.2 107.5-3.1 38.5-14.1 74-32 102.7-34.2 54.9-87.4 75.1-149.7 56.7-3.5-1-7.1-1.9-10.7-2.6 11.8 36.9 38.6 64.2 39 64.6l-14.1 14.1-14.1 14.2c-1.9-1.9-40.3-40.7-52.5-94.1-6 0.8-12 2.1-17.8 3.9-62.3 18.3-115.4-1.8-149.7-56.7-20.3-32.6-29.7-72.3-27.5-114.4-51.5 21.2-107.5 20.7-151.3-2.4-7.3-3.8-15-5.2-21.8-3.9-1.1 0.2-2.1 0.4-2.8 0.5-28 4.1-54.1-15.3-58.3-43.3-2.4-16.6 3.2-33 15.2-44.5-11.8-65.6 27-138.2 95.5-177.9 23.4-13.6 48.5-22.4 74.5-26.3 9.3-1.4 18.6-2.1 27.7-2.1 28.8 0 56 6.8 79 19.8 17.4-24.1 50.4-46.3 94.5-63.4 37-14.4 98.4-31.5 180.4-31.5 74.1 0 154.4 23.3 214.8 62.4 34.2 22.1 61.2 48.5 80.4 78.3 21.5 33.6 32.4 70.6 32.4 110.2 0.1 84.3-30 133.1-55.2 159.3z m-109 82.3c0.1 1 2.8 6 14.5 11.9 4.9 2.4 10.1 3.6 15.7 3.6 5.5 0 11.3-1.1 17.3-3.4 9.6-3.6 18.2-9.5 24.1-14.7-2-4-6.9-11.9-18.8-24.8-6-6.5-11.9-12.2-15.9-16.1-0.9 3.2-1.9 6.1-3 8.8-6.3 14.4-16.5 21-23.9 25.8-2.1 1.3-4.1 2.6-5.9 4-3.3 2.3-4.2 4.4-4.1 4.9z m-434.6-24.4c14 22.5 31.5 36.6 51.9 41.9 15.7 4.1 33.3 3.3 52.5-2.4 30.4-8.9 62.5-8.9 92.8 0 19.2 5.6 36.8 6.4 52.5 2.4 20.5-5.3 37.9-19.4 51.9-41.9 29.5-47.3 35.4-119.2 14.3-174.8-17.4-45.8-45.6-62.7-66.3-68.9l0.3-1c-22.1-2.2-46.2-3.1-72-2.7h-0.7l-104.6-5.3-2.7-0.9-1.5-0.6c-42.4 27.5-76.3 80.9-86.8 137.1-5.6 30.9-7.1 76.1 18.4 117.1z m-30.4-342.1c-21.3-9.9-47.2-13.2-74.1-9.3-20.7 3-41.5 10.4-60.3 21.3-27 15.7-49.4 38.4-63 64-13.1 24.7-17.6 51.3-12.6 74.9 2.5 11.9-1.9 24.5-11.7 32.8-3 2.6-4.4 6.4-3.9 10.3 0.8 5.6 5.7 9.7 11.2 9.7 0.5 0 1.1 0 1.7-0.1 0.1 0 0.3 0 0.4-0.1h0.2c15.7-3.1 32.9-0.4 48.3 7.7 39.1 20.6 91.6 17.2 137.5-8.9 11.8-52.5 40.3-102 78.2-135.7v-4.4c-4.3-1.9-9-4.3-13.6-7.3-11.2-5.1-24.5-13.6-32.2-27.4-3.5-6.6-6.8-15.8-6.1-27.5z m494.7-30.1c-54.1-35-126.3-55.9-193-55.9-132.5 0-228.2 49-246.3 84.4-0.8 1.6-1.5 3.1-2 4.7-2.5 7.1-0.9 10.1-0.2 11.4 1 1.9 2.7 3.6 4.6 5.2 3.1 1.2 5.9 2.1 7.9 2.5l6 1.2 4.4 4.6 0.7 0.7c0.4 0.1 0.8 0.2 1.1 0.3l6 1.2 4.4 4.6c3 3.1 6 5.8 9.1 8 4.1 3 8.6 5.4 13.5 7.3l97.4 4.9c32.7-0.6 63.1 0.9 90.4 4.5l5.2 0.3 0.8 0.6c0.8 0.1 1.7 0.2 2.5 0.4 80.5 12.2 137.1 43.7 168.2 93.8 25.9 41.8 28 87.1 29.3 114.1 0.1 2.3 0.2 4.5 0.3 6.6 0.2 2.9 0.3 5.7 0.3 8.4 4.5-1.6 23.1-9.1 41.4-28.7 28.2-30.3 42.6-74 42.6-129.9 0-43-16.4-104.6-94.6-155.2z"  horiz-adv-x="1024" />

    
    <glyph glyph-name="zhifubao1" unicode="&#58954;" d="M264.50351563 327.27890625c-10.62333984-8.55-22.01044922-21.03222657-25.31689454-36.9-4.50000001-21.67910156-0.93955078-48.81533203 19.97578125-70.10244141 25.33710938-25.80644532 63.84111328-32.86933594 80.47265625-34.08310546 45.17578125-3.26689453 93.32578126 19.13554687 129.61845704 44.68710937 14.22421875 10.03710938 38.58310547 30.18955078 61.86621093 61.27822267-52.18066405 26.94111328-117.31376953 56.73955078-186.94599609 53.82421875-35.56933594-1.48710937-61.04355469-8.86289062-79.67021484-18.70400392z m661.69248046-119.13134766C949.22333984 262.20644531999994 962 321.62578125000005 962 384 962 632.1257812399999 760.14599609 834 512 834 263.85400391 834 62 632.1257812399999 62 384c0-248.14599609 201.85400391-450 450-450 149.75244141 0 282.56044922 73.58466797 364.42177734 186.43710938-77.34111328 38.44511719-204.80888672 101.71933594-283.32421875 140.00888671-37.46777344-42.71132813-92.85644531-85.52021484-155.42578125-104.1459961-39.30644531-11.68066406-74.73955078-16.14111328-111.79599609-8.56933593-36.68466797 7.51289063-63.70400391 24.69111328-79.45400391 41.90888672-8.02177734 8.78466797-17.23710937 19.95644531-23.90888671 33.24023438a62.62207031 62.62207031 0 0 1 1.05644531-2.67978516s-3.83466797 6.61289063-6.76933594 17.13867186a75.58066405 75.58066405 0 0 0-2.93554687 15.94599611 82.19267578 82.19267578 0 0 0-0.17578125 11.46533203c-0.33222656 6.76933594-0.0580078 13.87177734 1.46777343 21.14999999 3.67822266 17.78466797 11.26933594 38.50488281 30.91289063 57.73710938 43.12177734 42.22177734 100.87822266 44.49111328 130.79355469 44.31445312 44.31533203-0.25400391 121.32421875-19.64355469 186.16289062-42.57333983 17.96132813 38.25 29.48466797 79.16132812 36.92021484 106.43554687H330.33710937v29.1515625h138.4435547v58.30400391H301.18466797v29.1524414h167.59599608v58.28466797c0 8.00244141 1.58466797 14.57578125 14.57578126 14.57578125h65.58310547v-72.86044922h182.19111328v-29.1524414H548.93955078v-58.30400391h145.74023438s-14.63378906-81.58710938-60.3975586-162c101.56376953-36.27421876 244.44843749-92.15244141 291.91376953-110.81777344z"  horiz-adv-x="1024" />

    
    <glyph glyph-name="-shuiguolei" unicode="&#58899;" d="M808 568.4c-55.9 91.5-138.4 140.3-161 152.4-0.2 2.9-0.6 5.8-1.3 8.7l-5.5 23.7c-6.1 26.3-29.1 44.6-56.1 44.6-4.3 0-8.7-0.5-12.9-1.5l-126.7-29.2c-15-3.4-27.7-12.5-35.8-25.6-8.2-13-10.8-28.5-7.3-43.4l5.5-23.7c2.3-10.1 7.2-19 13.8-26.2-10.7-34.9-33-105.9-58.3-174.7-0.5-1.3-49.3-125.8-143.4-207l-6.4-5.7c-49.9-44.9-101.5-91.3-69.1-159.4l1.1-2c9.4-14.9 38.2-50.2 98.9-50.2 28.8 0 64.8 8 109.2 29.9 17.5 8.6 36.5 22.4 55.1 38.7-15.1-43.5-17.6-85.8 22.8-121.5l1.8-1.4c9.9-6.8 31.5-18.8 61.8-18.8 30.6 0 70.1 12.2 115.2 54.3 7.2-21.9 21.9-40.8 48.5-54.7l2.1-0.9c7.9-3 21.6-6.9 39.1-6.9 40.2 0 100 21.1 152 123.8C918.3 224.4 883 445.4 808 568.4zM453.2 729.7l126.7 29.2c1.4 0.3 2.9 0.5 4.3 0.5 8.7 0 16.7-6 18.7-14.9l5.5-23.7c2.4-10.3-4.1-20.6-14.4-23l-126.7-29.2c-1.4-0.3-2.9-0.5-4.3-0.5-8.7 0-16.7 6-18.7 14.9l-5.5 23.7c-2.4 10.3 4.1 20.7 14.4 23z m242.6-681.1c-19.6 5-38.4 4.2-51.5-1-6.2 24.4-0.6 57.4 8.1 101.5l1.7 8.8c30.5 140.5-9.7 284.8-11.5 291.1-26.5 88-58.2 175.7-68.9 204.8l21.8 5c56.4-63.7 263-327.4 105.7-611.8-1.7 0.6-3.5 1.2-5.4 1.6z m-217 9.1c-16.2 1.6-30.7-0.9-40.5-6.5-7.8 26.4 6.3 59.5 28.4 106.9l3.6 7.7c7.4 15.1 13.8 30.5 19.4 45.9 2.4 3.8 4.7 7.5 6.8 11.2l-2.4 1.4c35.4 105.9 32.5 208.5 32.3 213.8-4.2 83.6-12.9 168.1-16.4 201l26.1 6c5.5-14.9 22-60 40.5-115.3 14.7-271.8-74.8-435-97.8-472.1zM238.2 232.3l6.1 5.5C345.3 324.9 396 454.3 398.2 460c24.1 65.6 45.5 133.1 57 170.3 2.5-0.3 5.1-0.5 7.7-0.5 3.1 0 6.3 0.3 9.4 0.8 2.3-21.1 6-58.3 9.6-101.8-8.4-54.5-55.8-284.8-262.4-387.8-1 1.2-2.1 2.4-3.1 3.5-11.4 12.3-24.5 20.9-36.5 25 10.5 18.9 31.1 38.3 58.3 62.8z m97.6-118.9c-36.6-18-69.2-26.7-95.9-26 2.1 10.4-1.2 24.2-9.1 37.9 163.1 82.7 229.8 241.2 256 336.2 0.5-8.3 1-16.6 1.4-24.9 0-1.2 2.9-105.5-33.2-208.1-30.3-45.9-82.8-97.2-119.2-115.1z m205.6-86c-8.1 10.9-23.4 20.8-42.4 26.4 26.9 44.5 97.8 183.8 98.4 411.8 2.8-9.1 5.7-18.2 8.4-27.3 0.4-1.4 39.2-141.4 10.7-272.7l-1.8-9.1c-5.1-26-10.3-52.4-11.2-77.2-20.9-23.6-41.9-41-62.1-51.9z m275.4 81.4c-21.9-43.3-47-73.7-73.1-89.9-4.9 7.7-13.5 15-24.5 20.8C875.6 325.1 680.9 589 615.5 665.2c8.3 4.2 15.4 10.3 20.7 17.7 26.7-15.6 93.5-59.8 139-134.4 69.7-114.3 103.1-318.2 41.6-439.7z"  horiz-adv-x="1024" />

    
    <glyph glyph-name="you" unicode="&#58939;" d="M740.07331363 754.66497779c13.09501624 0 24.03945947-4.38766503 32.96928381-13.39164711l324.44000245-324.316406C1106.41860453 407.94676232 1110.84952799 397.0023191 1110.84952799 384c0-13.1320951-4.43092346-24.07653833-13.3669281-32.95692468l-324.44000245-324.44000244c-8.93600464-9.01634193-19.87426758-13.3916471-32.96928381-13.3916471-13.2618711 0-24.34844947 4.37530518-33.11759996 13.1320951-8.80622864 8.88656592-13.22479224 19.96078515-13.22479225 33.21647668 0 13.0023191 4.48036218 23.94676232 13.37928796 32.95692467L952.66494265 337.65142822999996H230.24520364c-12.79220581 0-23.69338989 4.51126075-32.77153038 13.5214231C188.40789262 360.30661010999995 183.87809244 371.12127662 183.87809244 384c0 12.74894738 4.52980018 23.68721032 13.59558082 32.70355224C206.55799333 425.83731103 217.45917741 430.34857177 230.23902408 430.34857177h722.42591857L707.11020938 675.48307777c-8.89892578 8.88038635-13.37928796 19.95460487-13.37928796 32.95692467 0 13.2618711 4.4185636 24.33609033 13.22479225 33.08670068C715.72486344 750.4132690399999 726.81144182 754.78857422 740.07331363 754.78857422v-0.12359643z"  horiz-adv-x="1280" />

    
    <glyph glyph-name="zuo" unicode="&#58945;" d="M554.64194766 754.78857422c12.79220581 0 23.71810889-4.50508117 32.77152968-13.64501953 9.05960107-9.01016235 13.59558082-19.95460487 13.59558153-32.6911924 0-13.1320951-4.57305932-24.07653833-13.76861596-32.95692466l-245.12832642-245.09124757h722.35794044c12.79838538 0 23.69338989-4.50508117 32.81478882-13.64501953 9.02252221-9.01016235 13.56468224-19.94842529 13.56468224-32.69119239 0-12.87872338-4.54216003-23.81698632-13.57086182-32.82714867-9.11521935-9.01016235-20.01022315-13.51524353-32.80242896-13.51524353H342.11829606l245.12214685-245.09124756c9.19555664-9.01016235 13.76861596-19.95460487 13.76861596-32.9507444 0-12.8725431-4.53598046-23.81698632-13.59558153-32.82714867-9.05342078-9.13993836-19.98550415-13.64501953-32.77152968-13.64501953-13.05175781 0-24.03945947 4.50508117-32.95692467 13.38546753L197.2573804 350.98127747C188.34609476 360.37458825 183.87809244 371.45498633 183.87809244 383.93820214000004c0 12.60681153 4.46800232 23.55125404 13.37928796 32.95074439l324.42764259 324.37820459C530.8620402 750.15371704 541.84356156 754.66497779 554.64194766 754.66497779V754.78857422z"  horiz-adv-x="1280" />

    
    <glyph glyph-name="yuandian" unicode="&#59330;" d="M858.3 584.8C894 523.5 912 456.6 912 384s-17.9-139.5-53.7-200.8C822.5 122 774 73.4 712.8 37.7S584.6-16 512-16s-139.5 17.9-200.8 53.7c-61.2 35.7-109.7 84.2-145.6 145.6C129.9 244.5 112 311.4 112 384c0 72.5 17.9 139.4 53.7 200.8 35.7 61.2 84.2 109.7 145.6 145.6C372.5 766 439.4 784 512 784c72.5 0 139.4-17.9 200.8-53.7C774 694.5 822.5 646 858.3 584.8z m-204.1 44.4c-43.4 25.3-90.8 38-142.2 38s-98.8-12.7-142.2-38-77.8-59.7-103.1-103.1-38-90.8-38-142.2c0-51.4 12.7-98.8 38-142.2s59.7-77.8 103.1-103.1c43.4-25.3 90.8-38 142.2-38s98.8 12.7 142.2 38c43.4 25.3 77.8 59.7 103.1 103.1 25.3 43.4 38 90.8 38 142.2s-12.7 98.8-38 142.2c-25.4 43.4-59.8 77.8-103.1 103.1z m-47.9-151c26.1-26.1 39.1-57.5 39.1-94.3s-13-68.2-39.1-94.3c-26.1-26.1-57.5-39.1-94.3-39.1s-68.2 13-94.3 39.1c-26.1 26.1-39.1 57.5-39.1 94.3s13 68.2 39.1 94.3c26.1 26.1 57.5 39.1 94.3 39.1s68.2-13 94.3-39.1z"  horiz-adv-x="1024" />

    
    <glyph glyph-name="jiantou_zuoyouqiehuan_o" unicode="&#60309;" d="M170.666667 503.466667L349.866667 682.666667l29.866666-29.866667-149.333333-149.333333h669.866667v-42.666667H128l42.666667 42.666667z m682.666666-213.333334l-179.2-179.2-29.866666 29.866667 149.333333 149.333333H132.266667v42.666667H896l-42.666667-42.666667z"  horiz-adv-x="1024" />

    
    <glyph glyph-name="shouji-" unicode="&#58894;" d="M705.4 831.8H318.6c-107.4 0-194.7-87.3-194.7-194.7V131c0-107.4 87.3-194.7 194.7-194.7h386.9c107.4 0 194.7 87.3 194.7 194.7V637c-0.1 107.4-87.4 194.8-194.8 194.8z m-386.8-55h386.9c77.1 0 139.8-62.7 139.8-139.8v-365.3H178.8V637c0 77.1 62.7 139.8 139.8 139.8z m386.8-785.6H318.6c-77.1 0-139.8 62.7-139.8 139.8v85.9h666.4V131c0-77.1-62.7-139.8-139.8-139.8zM512 108.8m-56.2 0a56.2 56.2 0 1 1 112.4 0 56.2 56.2 0 1 1-112.4 0Z"  horiz-adv-x="1024" />

    
    <glyph glyph-name="yundong-" unicode="&#60995;" d="M157.6-51.2c-17.6 0-35.2 3.2-52 8.8-76.8 28-118.4 111.2-94.4 188.8l83.2 271.2c12.8 40.8 40 73.6 78.4 92 37.6 19.2 80.8 21.6 120.8 7.2l26.4-9.6c17.6-6.4 33.6-16 47.2-28h291.2c14.4 12 30.4 21.6 47.2 28l26.4 9.6c40 14.4 82.4 12 120.8-7.2 37.6-19.2 65.6-52 78.4-92l83.2-271.2c24-78.4-17.6-161.6-94.4-188.8-76.8-28-161.6 9.6-193.6 84.8l-19.2 45.6H317.6l-19.2-45.6c-24-57.6-80.8-93.6-140.8-93.6zM240 495.2c-18.4 0-36.8-4-54.4-12.8-30.4-15.2-52-40.8-61.6-72.8l-82.4-272c-19.2-61.6 13.6-127.2 74.4-149.6 60.8-21.6 128 7.2 152.8 67.2l23.2 55.2c2.4 5.6 8 9.6 14.4 9.6h409.6c6.4 0 12-4 14.4-9.6l23.2-55.2c24.8-60 92-88.8 152.8-67.2 60.8 22.4 93.6 88 74.4 149.6l-83.2 271.2c-9.6 32-32 57.6-61.6 72.8-30.4 15.2-64 16.8-95.2 5.6l-26.4-9.6c-15.2-5.6-29.6-14.4-41.6-25.6-3.2-2.4-7.2-4-11.2-4H360.8c-4 0-8 1.6-11.2 4-12 11.2-25.6 20-41.6 25.6L281.6 488c-13.6 4.8-27.2 7.2-41.6 7.2zM251.2 175.2c-63.2 0-114.4 51.2-114.4 114.4s51.2 114.4 114.4 114.4 114.4-51.2 114.4-114.4-51.2-114.4-114.4-114.4z m0 212.8c-54.4 0-98.4-44-98.4-98.4 0-54.4 44-98.4 98.4-98.4 54.4 0 98.4 44 98.4 98.4 0 54.4-44 98.4-98.4 98.4zM512 448.8c-8.8 0-16 7.2-16 16V803.2c0 8.8 7.2 16 16 16s16-7.2 16-16v-338.4c0-8.8-7.2-16-16-16zM780.8 315.2c-24.8 0-44 20-44 44 0 24.8 20 44 44 44 24.8 0 44-20 44-44s-19.2-44-44-44z m0 72.8c-16 0-28-12.8-28-28 0-16 12.8-28 28-28 16 0 28 12.8 28 28s-12 28-28 28zM780.8 150.4c-24.8 0-44 20-44 44 0 24.8 20 44 44 44 24.8 0 44-20 44-44s-19.2-44-44-44z m0 72.8c-16 0-28-12.8-28-28 0-16 12.8-28 28-28 16 0 28 12.8 28 28s-12 28-28 28zM863.2 232.8c-24.8 0-44 20-44 44 0 24.8 20 44 44 44 24.8 0 44-20 44-44 0.8-24-19.2-44-44-44z m0 72.8c-16 0-28-12.8-28-28 0-16 12.8-28 28-28 16 0 28 12.8 28 28 0.8 15.2-12 28-28 28zM698.4 232.8c-24.8 0-44 20-44 44 0 24.8 20 44 44 44 24.8 0 44-20 44-44s-19.2-44-44-44z m0 72.8c-16 0-28-12.8-28-28 0-16 12.8-28 28-28 16 0 28 12.8 28 28s-12 28-28 28z"  horiz-adv-x="1024" />

    
    <glyph glyph-name="yundong-1" unicode="&#60997;" d="M727.2 104.8c-4 0-8 1.6-11.2 4.8-78.4 78.4-168 124-283.2 143.2-8.8 1.6-14.4 9.6-12.8 18.4 1.6 8.8 9.6 14.4 18.4 12.8 116-20 208.8-64.8 288.8-141.6l25.6 25.6c-76 80.8-121.6 172.8-141.6 288.8-1.6 8.8 4 16.8 12.8 18.4 8.8 1.6 16.8-4 18.4-12.8 20-115.2 65.6-204.8 143.2-283.2 6.4-6.4 6.4-16 0-22.4l-48-48c-2.4-2.4-6.4-4-10.4-4zM421.6 252.8c-16.8 0-33.6 1.6-51.2 4-83.2 14.4-167.2 59.2-235.2 127.2C-7.2 526.4-38.4 726.4 65.6 830.4s304 72.8 446.4-69.6c142.4-142.4 173.6-342.4 69.6-446.4-40.8-40-96-61.6-160-61.6zM225.6 860C172 860 123.2 843.2 88 808-3.2 716.8 28 536.8 157.6 407.2c63.2-63.2 140.8-105.6 217.6-118.4 74.4-12 140 4.8 183.2 48 91.2 91.2 60 271.2-69.6 400.8-79.2 80-177.6 122.4-263.2 122.4zM941.6-124c-14.4 0-28 5.6-38.4 16l-202.4 202.4c-6.4 6.4-6.4 16 0 22.4l78.4 78.4c6.4 6.4 16.8 6.4 22.4 0l202.4-202.4c21.6-21.6 21.6-56 0-76.8l-24-24c-10.4-10.4-24-16-38.4-16zM734.4 105.6l191.2-191.2c8.8-8.8 23.2-8.8 32 0l24 24c8.8 8.8 8.8 23.2 0 32L790.4 161.6l-56-56zM525.6 285.6h-1.6c-4 0.8-7.2 4.8-6.4 9.6l67.2 324.8c0.8 4 4.8 7.2 9.6 6.4 4-0.8 7.2-4.8 6.4-9.6l-67.2-324.8c-0.8-4-4-6.4-8-6.4zM434.4 261.6h-1.6c-4 0.8-7.2 4.8-6.4 9.6l92.8 451.2c0.8 4 4.8 7.2 9.6 6.4 4-0.8 7.2-4.8 6.4-9.6L442.4 268c-0.8-4-4.8-6.4-8-6.4zM349.6 269.6h-1.6c-4 0.8-7.2 4.8-6.4 9.6l105.6 512c0.8 4 4.8 7.2 9.6 6.4 4-0.8 7.2-4.8 6.4-9.6l-105.6-512c-1.6-3.2-4.8-6.4-8-6.4zM268.8 299.2h-1.6c-4 0.8-7.2 4.8-6.4 9.6L370.4 839.2c0.8 4 4.8 7.2 9.6 6.4 4-0.8 7.2-4.8 6.4-9.6L276.8 305.6c-0.8-4-4-6.4-8-6.4zM192 347.2h-1.6c-4 0.8-7.2 4.8-6.4 9.6l105.6 512c0.8 4 4.8 7.2 9.6 6.4 4-0.8 7.2-4.8 6.4-9.6L200 353.6c-0.8-3.2-4-6.4-8-6.4zM120 416.8h-1.6c-4 0.8-7.2 4.8-6.4 9.6L204.8 877.6c0.8 4 4.8 7.2 9.6 6.4 4-0.8 7.2-4.8 6.4-9.6L127.2 423.2c-0.8-4-4-6.4-7.2-6.4zM53.6 518.4h-1.6c-4 1.6-6.4 5.6-5.6 9.6l67.2 324.8c0.8 4 4.8 7.2 9.6 6.4 4-0.8 7.2-4.8 6.4-9.6L61.6 524.8c-0.8-3.2-4-6.4-8-6.4zM277.6 295.2c-4 0-7.2 2.4-8 6.4-0.8 4 1.6 8.8 6.4 9.6l324.8 67.2c4 0.8 8.8-1.6 9.6-6.4 0.8-4-1.6-8.8-6.4-9.6l-324.8-67.2h-1.6zM176 360.8c-4 0-7.2 2.4-8 6.4-0.8 4 1.6 8.8 6.4 9.6l451.2 92.8c4 0.8 8.8-1.6 9.6-6.4 0.8-4-1.6-8.8-6.4-9.6L177.6 360.8H176zM106.4 432.8c-4 0-7.2 2.4-8 6.4-0.8 4 1.6 8.8 6.4 9.6l512 105.6c4 0.8 8.8-1.6 9.6-6.4 0.8-4-1.6-8.8-6.4-9.6l-512-105.6h-1.6zM58.4 509.6c-4 0-7.2 2.4-8 6.4-0.8 4 1.6 8.8 6.4 9.6l530.4 109.6c4 0.8 8.8-1.6 9.6-6.4 0.8-4-1.6-8.8-6.4-9.6L60 509.6h-1.6zM28.8 590.4c-4 0-7.2 2.4-8 6.4-0.8 4 1.6 8.8 6.4 9.6l512 105.6c4 0.8 8.8-1.6 9.6-6.4 0.8-4-1.6-8.8-6.4-9.6l-512-105.6h-1.6zM20 675.2c-4 0-7.2 2.4-8 6.4-0.8 4 1.6 8.8 6.4 9.6L469.6 784c4 0.8 8.8-1.6 9.6-6.4 0.8-4-1.6-8.8-6.4-9.6L21.6 675.2h-1.6zM44 767.2c-4 0-7.2 2.4-8 6.4-0.8 4 1.6 8.8 6.4 9.6L368 849.6c4 0.8 8-1.6 8.8-5.6 0.8-4-1.6-8.8-6.4-9.6L45.6 767.2h-1.6zM790.4 448.8c-28 0-56 10.4-77.6 32-42.4 42.4-42.4 112 0 155.2 42.4 42.4 112 42.4 155.2 0 42.4-42.4 42.4-112 0-155.2-21.6-21.6-49.6-32-77.6-32z m0 186.4c-20 0-40-7.2-55.2-22.4-30.4-30.4-30.4-79.2 0-109.6 30.4-30.4 79.2-30.4 109.6 0 30.4 30.4 30.4 79.2 0 109.6-14.4 15.2-34.4 22.4-54.4 22.4zM765.6 57.6c-2.4 0-4 0.8-5.6 2.4-3.2 3.2-3.2 8 0 11.2l63.2 63.2c3.2 3.2 8 3.2 11.2 0 3.2-3.2 3.2-8 0-11.2l-63.2-63.2c-1.6-1.6-4-2.4-5.6-2.4zM816 8c-2.4 0-4 0.8-5.6 2.4-3.2 3.2-3.2 8 0 11.2l63.2 63.2c3.2 3.2 8 3.2 11.2 0 3.2-3.2 3.2-8 0-11.2l-63.2-63.2c-1.6-1.6-4-2.4-5.6-2.4z"  horiz-adv-x="1024" />

    
    <glyph glyph-name="qita2" unicode="&#59714;" d="M512 64c-176.725333 0-320 143.274667-320 320 0 176.725333 143.274667 320 320 320 176.725333 0 320-143.274667 320-320 0-176.725333-143.274667-320-320-320z m-170.666667 256a64 64 0 1 1 0 128 64 64 0 0 1 0-128z m170.666667 0a64 64 0 1 1 0 128 64 64 0 0 1 0-128z m170.666667 0a64 64 0 1 1 0 128 64 64 0 0 1 0-128z"  horiz-adv-x="1024" />

    
    <glyph glyph-name="rili" unicode="&#59161;" d="M882.6-64h-740c-28.2-0.6-51.7 21.4-52.9 49.5V694.2c0 28.6 23.2 51.8 51.8 51.8h137.8V814.9c0 9.4 7.6 17.1 17.1 17.1h51.8c9.4 0.3 17.3-7.1 17.6-16.5V746h292.6V814.9c0 9.4 7.6 17.1 17.1 17.1h51.8c9.4 0.3 17.3-7.1 17.6-16.5V746h137.8c28.6 0 51.8-23.2 51.8-51.8v-708.7c-1.3-27.7-24.2-49.5-51.9-49.5z m0 740c-0.3 9.3-7.8 16.8-17.1 17.1H744.8v-51.8c0-9.4-7.6-17.1-17.1-17.1h-51.8c-9.4-0.3-17.3 7.1-17.6 16.5v53.5H365.7v-51.8c0-9.4-7.6-17.1-17.1-17.1h-51.8c-9.4-0.3-17.3 7.1-17.6 16.5v52.4H158.5c-9.3-0.3-16.8-7.8-17.1-17.1v-122.4h740V677.2l1.2-1.2z m0-170.8h-740v-499.8c0-9.4 7.6-17.1 17.1-17.1h705.9c9.4 0 17.1 7.6 17.1 17.1l-0.1 499.8zM779 91.4h-68.9c-9.4 0-17.1 7.6-17.1 17.1v68.9c0 9.4 7.6 17.1 17.1 17.1H779c9.4 0 17.1-7.6 17.1-17.1v-68.9c0.3-9.4-7.1-17.3-16.5-17.6h-0.6v0.5z m0 189.6h-68.9c-9.4 0-17.1 7.6-17.1 17.1V367c0 9.4 7.6 17.1 17.1 17.1H779c9.4 0 17.1-7.6 17.1-17.1v-69c0.3-9.4-7.1-17.3-16.5-17.6h-0.6v0.6zM555.3 91.4h-68.9c-9.7 0-17.6 7.9-17.6 17.6v68.3c0.3 9.5 8.1 17.1 17.6 17.1h68.9c9.3-0.3 16.8-7.8 17.1-17.1v-68.9c0-9.5-7.6-17.3-17.1-17.6v0.6z m0 189.6h-68.9c-9.7 0-17.6 7.9-17.6 17.6v68.3c0.3 9.5 8.1 17.1 17.6 17.1h68.9c9.3-0.3 16.8-7.8 17.1-17.1V298c0-9.5-7.6-17.3-17.1-17.6v0.6zM331 90.8h-68.9c-9.4 0-17.1 7.6-17.1 17.1v69.5c0 9.4 7.6 17.1 17.1 17.1H331c9.4 0 17.1-7.6 17.1-17.1v-68.9c0.3-9.4-7.1-17.3-16.5-17.6-0.2-0.1-0.4-0.1-0.6-0.1z m0 189.6h-68.9c-9.4 0-17.1 7.6-17.1 17.1V367c0 9.4 7.6 17.1 17.1 17.1H331c9.4 0 17.1-7.6 17.1-17.1v-69c0.3-9.4-7.1-17.3-16.5-17.6h-0.6z"  horiz-adv-x="1024" />

    
    <glyph glyph-name="webduanmobancaozuo_gengduo" unicode="&#60919;" d="M320 320c-38.4 0-64 25.6-64 64s25.6 64 64 64 64-25.6 64-64-25.6-64-64-64z m192-320c211.2 0 384 172.8 384 384s-172.8 384-384 384-384-172.8-384-384 172.8-384 384-384z m0-64c-249.6 0-448 198.4-448 448s198.4 448 448 448 448-198.4 448-448-198.4-448-448-448z m0 384c-38.4 0-64 25.6-64 64s25.6 64 64 64 64-25.6 64-64-25.6-64-64-64z m192 0c-38.4 0-64 25.6-64 64s25.6 64 64 64 64-25.6 64-64-25.6-64-64-64z"  horiz-adv-x="1024" />

    
    <glyph glyph-name="xueyuan-chakangengduo" unicode="&#59080;" d="M512 160.185L291.032 381.151c-8.137 8.139-8.137 21.322 0 29.46 8.139 8.138 21.322 8.138 29.461 0L512 219.104l191.507 191.508c8.139 8.138 21.322 8.138 29.459 0 8.139-8.138 8.139-21.321 0-29.46L512 160.185z"  horiz-adv-x="1024" />

    
    <glyph glyph-name="haizi" unicode="&#59470;" d="M512 79.934694c-54.857143 0-106.057143 21.420408-144.718367 60.081633-8.359184 8.359184-8.359184 21.420408 0 29.779591 8.359184 8.359184 21.420408 8.359184 29.779591 0 30.82449-30.82449 71.57551-47.542857 115.461225-47.542857s84.636735 16.718367 115.461224 47.542857c8.359184 8.359184 21.420408 8.359184 29.779592 0 8.359184-8.359184 8.359184-21.420408 0-29.779591-39.706122-38.661224-90.906122-60.081633-145.763265-60.081633zM512-24.555102c-140.016327 0-265.926531 85.159184-318.693878 213.159184-54.334694-3.134694-99.265306 40.75102-99.265306 94.040816 0 46.497959 33.959184 85.159184 78.367347 92.995918 21.942857 132.702041 121.730612 242.938776 252.865306 276.89796 10.971429 3.134694 22.465306-3.657143 25.6-15.151021 3.134694-10.971429-3.657143-22.465306-15.15102-25.6-120.163265-31.346939-210.546939-135.314286-224.130612-258.612245-1.044898-10.971429-10.44898-18.808163-21.420408-18.285714h-1.567347c-28.734694 0-52.244898-23.510204-52.244898-52.767347s23.510204-52.767347 52.767347-52.767347c4.179592 0 8.881633 0.522449 13.061224 1.567347 10.44898 2.612245 21.420408-3.134694 25.077551-13.061225 42.840816-120.685714 157.257143-201.665306 285.257143-201.665306s242.938776 80.979592 285.257143 201.665306c3.657143 10.44898 14.628571 16.195918 25.077551 13.061225 4.702041-1.044898 8.881633-1.567347 13.061224-1.567347 29.257143 0 52.767347 23.510204 52.767347 52.767347s-23.510204 52.767347-52.767347 52.767347h-1.567347c-10.971429 0-20.37551 7.836735-21.420408 18.285714-14.106122 123.297959-103.967347 227.265306-224.130612 258.612245-10.971429 3.134694-17.763265 14.106122-15.15102 25.6s14.106122 17.763265 25.6 15.151021c131.134694-33.959184 230.922449-144.195918 252.865306-276.89796 44.408163-7.836735 78.367347-46.497959 78.367347-92.995918 0-52.244898-42.318367-94.563265-94.563266-94.563265h-4.70204c-53.289796-128-179.2-212.636735-319.216327-212.636735zM383.477551 350.040816m-36.571429 0a36.571429 36.571429 0 1 1 73.142858 0 36.571429 36.571429 0 1 1-73.142858 0ZM642.089796 350.040816m-36.571429 0a36.571429 36.571429 0 1 1 73.142857 0 36.571429 36.571429 0 1 1-73.142857 0ZM512 493.714286c-56.42449 0-102.4 43.885714-102.4 98.220408 0 71.57551 41.273469 141.583673 115.983673 196.963265 6.269388 4.702041 14.628571 5.22449 21.942858 2.089796 6.791837-3.657143 11.493878-10.971429 11.493877-18.808163 0-48.587755 13.061224-69.485714 27.167347-91.428572 13.583673-20.897959 28.734694-44.930612 28.734694-88.816326C614.4 537.6 568.42449 493.714286 512 493.714286z m8.359184 236.669387c-33.436735-31.346939-68.963265-78.889796-68.963266-138.448979 0-31.346939 27.167347-56.42449 60.604082-56.42449 33.436735 0 60.604082 25.6 60.604082 56.42449 0 31.869388-9.926531 47.020408-21.942858 65.828571-10.971429 17.763265-24.032653 38.138776-30.30204 72.620408z"  horiz-adv-x="1024" />

    
    <glyph glyph-name="tubiaozhuzhuangtu" unicode="&#58627;" d="M99.58015625 748.60588542c0 1.22878125 0.46846875 2.456625 1.40540625 3.39459375 0.937875 0.9369375 2.16571875 1.40540625 3.39459375 1.40540625h30.36768c1.22878125 0 2.456625-0.46846875 3.39459375-1.40540625 0.9369375-0.937875 1.40540625-2.16571875 1.40540625-3.39459375v-741.26784h807.88128c1.22784375 0 2.4575625-0.46846875 3.3935625-1.4064375 0.937875-0.9369375 1.4064375-2.16571875 1.4064375-3.3935625v-30.36768c0-1.22784375-0.46846875-2.4575625-1.4064375-3.3935625-0.9369375-0.937875-2.16571875-1.4064375-3.3935625-1.4064375H99.58016V748.6058666700001zM192.34898634 592.76062744c0 3.03668118 1.15801907 6.0734396 3.47575665 8.38947774 2.31688786 2.31688786 5.35356904 3.47575664 8.38947772 3.47575664H312.21393233c3.03668118 0 6.0734396-1.15801907 8.38947773-3.47575664 2.31688786-2.31688786 3.47575664-5.35356904 3.47575664-8.38947773v-558.96486329H192.34896162V592.7606119899999zM586.35308197 428.09805649c0 3.03668118 1.15801907 6.0734396 3.47575664 8.38947773 2.31688786 2.31688786 5.35356904 3.47575664 8.38947773 3.47575665h107.99973633c3.03668118 0 6.0734396-1.15801907 8.38947773-3.47575665 2.31688786-2.31688786 3.47575664-5.35356904 3.47575664-8.38947773v-394.3030957H586.35306961V428.0980534zM348.10204064 278.15258282c0 3.23912659 1.23612671 6.47833557 3.70747376 8.94877625s5.71047364 3.70747375 8.94877624 3.70747375h115.19971875c3.23912659 0 6.47833557-1.23612671 8.94877625-3.70747375s3.70747375-5.71047364 3.70747375-8.94877625v-244.9490625H348.10202087V278.15257293zM745.67490069 98.7721421c0 3.03668118 1.15886879 6.0734396 3.47575665 8.38947774s5.35356904 3.47575664 8.38947773 3.47575664h107.99973632c3.03668118 0 6.0734396-1.15886879 8.38947773-3.47575664s3.47575664-5.35356904 3.47575665-8.38947774v-64.97797851H745.67486979V98.77214519999995z"  horiz-adv-x="1024" />

    
    <glyph glyph-name="bingzhuangtu-tianchong" unicode="&#59177;" d="M969.6 476.8C931.2 659.2 787.2 803.2 604.8 841.6h-16c-12.8-3.2-22.4-16-22.4-32v-374.4h374.4c16 0 25.6 9.6 32 22.4-3.2 6.4 0 12.8-3.2 19.2zM918.4 406.4h-384v384c0 19.2-12.8 32-32 32-246.4 0-448-201.6-448-448s201.6-448 448-448 448 201.6 448 448c0 16-16 32-32 32z"  horiz-adv-x="1024" />

    
    <glyph glyph-name="qitafuwu" unicode="&#58923;" d="M858.4 10.3H603.1c-35.2 0-63.8 28.7-63.8 63.8V292.9c0 35.2 28.7 63.8 63.8 63.8h218.7c35.2 0 63.8-28.7 63.8-63.8V147c0-15.1-12.3-27.3-27.3-27.3-15.1 0-27.3 12.3-27.3 27.3V292.9c0 5-4.1 9.1-9.1 9.1H603.1c-5 0-9.1-4.1-9.1-9.1v-218.7c0-5 4.1-9.1 9.1-9.1h255.2c15.1 0 27.3-12.3 27.3-27.3 0.1-15.2-12.2-27.5-27.2-27.5zM420.9 10.3H202.2c-35.2 0-63.8 28.7-63.8 63.8V292.9c0 35.2 28.7 63.8 63.8 63.8h218.7c35.2 0 63.8-28.7 63.8-63.8v-218.7c0-35.2-28.7-63.9-63.8-63.9zM202.2 302c-5 0-9.1-4.1-9.1-9.1v-218.7c0-5 4.1-9.1 9.1-9.1h218.7c5 0 9.1 4.1 9.1 9.1V292.9c0 5-4.1 9.1-9.1 9.1H202.2zM821.8 411.3H603.1c-35.2 0-63.8 28.7-63.8 63.8V693.8c0 35.2 28.7 63.8 63.8 63.8h218.7c35.2 0 63.8-28.7 63.8-63.8v-218.7c0.1-35.1-28.6-63.8-63.8-63.8zM603.1 703c-5 0-9.1-4.1-9.1-9.1v-218.7c0-5 4.1-9.1 9.1-9.1h218.7c5 0 9.1 4.1 9.1 9.1V693.8c0 5-4.1 9.1-9.1 9.1H603.1zM457.3 411.3H202.2c-35.2 0-63.8 28.7-63.8 63.8V693.8c0 35.2 28.7 63.8 63.8 63.8h218.7c35.2 0 63.8-28.7 63.8-63.8V548c0-15.1-12.3-27.3-27.3-27.3-15.1 0-27.3 12.3-27.3 27.3V693.8c0 5-4.1 9.1-9.1 9.1H202.2c-5 0-9.1-4.1-9.1-9.1v-218.7c0-5 4.1-9.1 9.1-9.1h255.2c15.1 0 27.3-12.3 27.3-27.3 0-15.1-12.3-27.4-27.4-27.4z"  horiz-adv-x="1024" />

    
    <glyph glyph-name="icon_gengduo" unicode="&#58884;" d="M512 497.152c-61.952 0-112.64-50.176-112.64-112.64v-1.024c0-61.952 50.176-112.64 112.64-112.64 61.952 0 112.64 50.176 112.64 112.64v1.024c0 62.464-50.688 112.64-112.64 112.64z m-266.24-40.96c-39.424 0-71.68-32.256-71.68-71.68v-1.024c0-39.424 32.256-71.68 71.68-71.68s71.68 32.256 71.68 71.68v1.024c0 39.424-32.256 71.68-71.68 71.68z m532.48 0c-39.424 0-71.68-32.256-71.68-71.68v-1.024c0-39.424 32.256-71.68 71.68-71.68s71.68 32.256 71.68 71.68v1.024c0 39.424-32.256 71.68-71.68 71.68z"  horiz-adv-x="1024" />

    
    <glyph glyph-name="caidan-" unicode="&#58927;" d="M843.87 748.07H194.96c-38.12 0-69.34-26.7-69.34-59.22v-622.46c0-25.55 24.58-46.45 54.51-46.45h663.74c30.01 0 54.51 20.9 54.51 46.45V701.62c0 25.55-24.59 46.45-54.51 46.45zM407.38 544.48c0 9.48 7.76 17.25 17.25 17.25h288.06c9.49 0 17.25-7.77 17.25-17.25v-20.7c0-9.48-7.76-17.25-17.25-17.25H424.63c-9.49 0-17.25 7.77-17.25 17.25v20.7z m-87.96-315.66c-15.72 0-28.46 12.74-28.46 28.46s12.74 28.46 28.46 28.46 28.46-12.74 28.46-28.46-12.75-28.46-28.46-28.46z m0 139.71c-15.72 0-28.46 12.74-28.46 28.46s12.74 28.46 28.46 28.46 28.46-12.74 28.46-28.46c0-15.71-12.75-28.46-28.46-28.46z m0 138c-15.72 0-28.46 12.74-28.46 28.46s12.74 28.46 28.46 28.46 28.46-12.74 28.46-28.46-12.75-28.46-28.46-28.46z m87.96-100.04c0 9.48 7.76 17.25 17.25 17.25h288.06c9.49 0 17.25-7.77 17.25-17.25v-20.7c0-9.48-7.76-17.25-17.25-17.25H424.63c-9.49 0-17.25 7.77-17.25 17.25v20.7z m322.56-160.42c0-9.49-7.76-17.25-17.25-17.25H424.63c-9.49 0-17.25 7.76-17.25 17.25v20.7c0 9.49 7.76 17.25 17.25 17.25h288.06c9.49 0 17.25-7.76 17.25-17.25v-20.7z"  horiz-adv-x="1024" />

    
    <glyph glyph-name="shouji" unicode="&#58968;" d="M850.5 833.4h-677c-20.2 0-36.6-16.4-36.6-36.6v-824.9c0-20.2 16.4-36.6 36.6-36.6h677c20.2 0 36.6 16.4 36.6 36.6V796.7c0 20.2-16.4 36.7-36.6 36.7z m-36.6-73.3v-532.9H210.1V760.1h603.8zM210.1 8V157.2h603.7V8H210.1zM512 81.1m-51.1 0a51.1 51.1 0 1 1 102.2 0 51.1 51.1 0 1 1-102.2 0Z"  horiz-adv-x="1024" />

    
    <glyph glyph-name="weimingmingwenjianjia_rili" unicode="&#58936;" d="M810.666667 682.666667h-106.666667V746.666667c0 12.8-8.533333 21.333333-21.333333 21.333333s-21.333333-8.533333-21.333334-21.333333v-64H362.666667V746.666667c0 12.8-8.533333 21.333333-21.333334 21.333333s-21.333333-8.533333-21.333333-21.333333v-64h-106.666667c-36.266667 0-64-27.733333-64-64v-554.666667c0-36.266667 27.733333-64 64-64h597.333334c36.266667 0 64 27.733333 64 64V618.666667c0 36.266667-27.733333 64-64 64z m-597.333334-42.666667h106.666667v-42.666667c0-12.8 8.533333-21.333333 21.333333-21.333333s21.333333 8.533333 21.333334 21.333333v42.666667h298.666666v-42.666667c0-12.8 8.533333-21.333333 21.333334-21.333333s21.333333 8.533333 21.333333 21.333333v42.666667h106.666667c12.8 0 21.333333-8.533333 21.333333-21.333333v-128H192v128c0 12.8 8.533333 21.333333 21.333333 21.333333z m597.333334-597.333333H213.333333c-12.8 0-21.333333 8.533333-21.333333 21.333333V448h640v-384c0-12.8-8.533333-21.333333-21.333333-21.333333zM576 192H320c-12.8 0-21.333333-8.533333-21.333333-21.333333s8.533333-21.333333 21.333333-21.333334h256c12.8 0 21.333333 8.533333 21.333333 21.333334s-8.533333 21.333333-21.333333 21.333333zM704 341.333333H320c-12.8 0-21.333333-8.533333-21.333333-21.333333s8.533333-21.333333 21.333333-21.333333h384c12.8 0 21.333333 8.533333 21.333333 21.333333s-8.533333 21.333333-21.333333 21.333333z"  horiz-adv-x="1024" />

    
    <glyph glyph-name="iconzhengli_gongziguanli" unicode="&#58948;" d="M810.666667 618.666667h-42.666667V704c0 36.266667-27.733333 64-64 64H320c-36.266667 0-64-27.733333-64-64v-85.333333h-42.666667c-36.266667 0-64-27.733333-64-64v-490.666667c0-36.266667 27.733333-64 64-64h597.333334c36.266667 0 64 27.733333 64 64V554.666667c0 36.266667-27.733333 64-64 64z m0-42.666667c12.8 0 21.333333-8.533333 21.333333-21.333333v-170.666667h-64v192h42.666667zM320 725.333333h384c12.8 0 21.333333-8.533333 21.333333-21.333333v-320H298.666667V704c0 12.8 8.533333 21.333333 21.333333 21.333333z m-106.666667-149.333333h42.666667v-192H192v170.666667c0 12.8 8.533333 21.333333 21.333333 21.333333z m597.333334-533.333333H213.333333c-12.8 0-21.333333 8.533333-21.333333 21.333333V341.333333h640v-277.333333c0-12.8-8.533333-21.333333-21.333333-21.333333zM426.666667 512c-10.666667 0-21.333333-8.533333-21.333334-21.333333 0-10.666667 10.666667-21.333333 21.333334-21.333334h64v-21.333333c0-12.8 8.533333-21.333333 21.333333-21.333333s21.333333 8.533333 21.333333 21.333333v21.333333h64c10.666667 0 21.333333 10.666667 21.333334 21.333334 0 12.8-10.666667 21.333333-21.333334 21.333333h-64v42.666667h64c10.666667 0 21.333333 10.666667 21.333334 21.333333s-10.666667 21.333333-21.333334 21.333333h-44.8l38.4 38.4c8.533333 8.533333 8.533333 21.333333 0 29.866667-8.533333 8.533333-21.333333 8.533333-29.866666 0L512 616.533333l-49.066667 49.066667c-8.533333 8.533333-21.333333 8.533333-29.866666 0-8.533333-8.533333-8.533333-21.333333 0-29.866667l38.4-38.4H426.666667c-10.666667 0-21.333333-10.666667-21.333334-21.333333s10.666667-21.333333 21.333334-21.333333h64v-42.666667h-64z"  horiz-adv-x="1024" />

    
    <glyph glyph-name="weixin3" unicode="&#58918;" d="M512 844.8C257.504 844.8 51.2 638.496 51.2 384S257.504-76.8 512-76.8 972.8 129.504 972.8 384 766.496 844.8 512 844.8z m0-896C272.032-51.2 76.8 144.032 76.8 384S272.032 819.2 512 819.2 947.2 623.968 947.2 384 751.968-51.2 512-51.2z m100.112 526.176c6.48 0 12.912-0.48 19.28-1.184-17.328 80.672-103.568 140.608-202.016 140.608-110.048 0-200.224-75.024-200.224-170.272 0-54.992 30-100.16 80.128-135.168l-20.032-60.24 70 35.088c25.04-4.96 45.12-10.048 70.128-10.048 6.288 0 12.512 0.304 18.688 0.8a148.976 148.976 0 0 0-6.176 41.952c0 87.488 75.12 158.464 170.224 158.464z m-107.664 54.288c15.072 0 25.056-9.92 25.056-24.976 0-15.008-9.984-25.072-25.056-25.072-15.008 0-30.08 10.064-30.08 25.072 0.032 15.056 15.072 24.976 30.08 24.976z m-140.128-50.048c-14.992 0-30.144 10.064-30.144 25.072 0 15.056 15.152 24.976 30.144 24.976 15.008 0 25.008-9.92 25.008-24.976 0-15.024-9.984-25.072-25.008-25.072z m260.464-14.992c-95.264 0-170.288-65.264-170.288-145.296 0-80.192 75.04-145.296 170.288-145.296 19.936 0 40.048 5.024 60.064 10.048l54.912-30.08-15.04 50.032c40.176 30.16 70.128 70.128 70.128 115.296 0 80.048-80.112 145.28-170.08 145.28z m-55.216-120.256c-9.984 0-20.032 9.92-20.032 20.032 0 9.984 10.048 20.032 20.032 20.032 15.136 0 25.056-10.048 25.056-20.032 0-10.112-9.92-20.032-25.056-20.032z m110.128 0c-9.904 0-19.888 9.92-19.888 20.032 0 9.984 9.984 20.032 19.888 20.032 14.992 0 25.056-10.048 25.056-20.032 0-10.112-10.064-20.032-25.056-20.032z"  horiz-adv-x="1024" />

    
    <glyph glyph-name="chartline-fill" unicode="&#58900;" d="M803.328 730.112H220.672c-30.208 0-54.784-24.576-54.784-54.784v-582.656c0-30.208 24.576-54.784 54.784-54.784h582.656c30.208 0 54.784 24.576 54.784 54.784V675.328c0 30.208-24.576 54.784-54.784 54.784zM320.512 176.12800000000004c0-6.656-2.56-12.8-7.168-17.408-4.608-4.608-10.752-7.168-17.408-7.168-13.824 0-24.576 11.264-24.576 24.576V336.89599999999996c0 13.824 11.264 24.576 24.576 24.576 13.824 0 24.576-11.264 24.576-24.576v-160.768z m144.384 0c0-13.824-11.264-24.576-24.576-24.576-13.824 0-24.576 11.264-24.576 24.576V440.32c0 13.824 11.264 24.576 24.576 24.576 13.824 0 24.576-11.264 24.576-24.576v-264.192z m144.384 0c0-13.824-11.264-24.576-24.576-24.576-13.824 0-24.576 11.264-24.576 24.576V336.89599999999996c0 13.824 11.264 24.576 24.576 24.576 13.824 0 24.576-11.264 24.576-24.576v-160.768z m144.384 0c0-13.824-11.264-24.576-24.576-24.576-13.824 0-24.576 11.264-24.576 24.576V440.32c0 13.824 11.264 24.576 24.576 24.576 13.824 0 24.576-11.264 24.576-24.576v-264.192z m18.432 420.864L583.68 470.528c-10.752-7.168-25.088-5.12-33.28 4.608L457.728 583.6800000000001 285.696 459.776c-4.608-3.072-9.728-4.608-14.848-4.608-7.68 0-15.36 3.584-20.48 10.24-8.192 11.264-5.632 27.136 5.632 35.328l190.464 137.728c10.752 7.68 25.6 6.144 33.792-4.096l93.184-109.056 169.984 113.664c11.776 7.68 27.136 4.608 34.816-7.168 8.192-11.264 5.12-27.136-6.144-34.816z"  horiz-adv-x="1024" />

    
    </font>
</defs>
</svg>
